<?xml version="1.0" encoding="UTF-8" standalone="no"?>
<svg
   width="1900"
   height="1900"
   viewBox="0 0 146.49456 146.49456"
   version="1.1"
   id="svg25"
   sodipodi:docname="garuda-indonesia.svg"
   inkscape:version="1.1.2 (0a00cf5339, 2022-02-04)"
   xmlns:inkscape="http://www.inkscape.org/namespaces/inkscape"
   xmlns:sodipodi="http://sodipodi.sourceforge.net/DTD/sodipodi-0.dtd"
   xmlns="http://www.w3.org/2000/svg"
   xmlns:svg="http://www.w3.org/2000/svg">
  <defs
     id="defs29">
    <clipPath
       clipPathUnits="userSpaceOnUse"
       id="clipPath215">
      <rect
         style="opacity:0.5;stroke-width:0.0771024"
         id="rect217"
         width="144.6508"
         height="71.523567"
         x="19.235985"
         y="43.825905"
         clip-path="none" />
    </clipPath>
  </defs>
  <sodipodi:namedview
     id="namedview27"
     pagecolor="#505050"
     bordercolor="#eeeeee"
     borderopacity="1"
     inkscape:pageshadow="0"
     inkscape:pageopacity="0"
     inkscape:pagecheckerboard="0"
     showgrid="false"
     inkscape:zoom="0.13859293"
     inkscape:cx="-25.253814"
     inkscape:cy="901.92191"
     inkscape:window-width="1366"
     inkscape:window-height="695"
     inkscape:window-x="0"
     inkscape:window-y="0"
     inkscape:window-maximized="1"
     inkscape:current-layer="svg25"
     width="1900px" />
  <path
     fill="#ffffff"
     fill-opacity="0"
     d="M -18.314106,-20.032202 H 174.44189 V 172.72395 H -18.314106 Z"
     id="path9"
     style="clip-rule:evenodd;fill-rule:evenodd" />
  <path
     d="m 120.87189,67.492798 c 4.012,-2.653 8.18,-3.568 12.475,-2.748 l 1.232,-1.2 c 0.916,1.547 1.988,2.053 3.158,1.516 -0.285,-4.327 -3.633,-6.316 -10.074,-5.905 -0.379,-2.622 -1.422,-3.916 -3.064,-3.948 -12.695,0.853 -19.801,0.253 -21.348,-1.863 -2.655,0.632 3.22,5.337 17.621,14.148 z m 4.043,-8.337 c -1.611,1.137 -2.684,0.916 -3.285,-0.664 0.506,-0.6 1.611,-0.6 3.285,0 0.189,0.286 0.189,0.506 0,0.664 z m -22.17,17.528 c 3.789,1.2 6.379,0.727 7.674,-1.421 l -26.685996,-19.707 c -12.475,-11.243 -34.96,-15.285 -67.489,-12.159 l 0.379,0.6 c 5.559,-0.316 10.327,-0.474 14.274,-0.442 3.917,0.032 10.264,0.505 18.98,1.39 8.716,0.885 18.948,6 30.759,15.317 z"
     fill="#43508e"
     id="path11"
     style="clip-rule:evenodd;fill-rule:evenodd" />
  <path
     d="m 108.80689,70.998798 c 4.676,1.452 7.834,0.884 9.412,-1.769 l -32.653996,-24.097 c -12.38,-9.411 -37.582,-13.453 -75.637,-12.064 -0.758,0.379 -0.853,0.821 -0.253,1.295 11.274,-0.252 19.581,-0.252 24.98,0 16.959,-0.411 32.655,5.084 47.087,16.485 z"
     fill="#43508e"
     id="path13"
     style="clip-rule:evenodd;fill-rule:evenodd"
     sodipodi:nodetypes="cccccccc" />
  <path
     d="m 33.834894,73.619798 c 1.863,0.031 3.442,0.063 4.8,0.126 11.495,-0.315 22.169,3.411 31.992,11.18 l 9.917,7.391 0.758,0.568 c 3.189,0.979 5.305,0.6 6.41,-1.2 l -7.547,-5.559 -0.031,0.032 -6.917,-5.117 c -7.042,-5.368 -20.18,-8.147 -39.381,-8.369 v 0.948 z"
     fill="#6c7c8b"
     id="path15"
     style="clip-rule:evenodd;fill-rule:evenodd" />
  <path
     d="m 89.164894,88.652798 c 3.189,0.979 5.307,0.601 6.41,-1.2 l -22.201,-16.359 c -7.769,-5.906 -22.896,-8.685 -45.477,-8.338 v 0.948 c 4.674,-0.063 8.306,-0.032 10.896,0.095 11.527,-0.316 22.17,3.411 31.992,11.18 z"
     fill="#6c7c8b"
     id="path17"
     style="clip-rule:evenodd;fill-rule:evenodd" />
  <path
     d="m 74.857894,67.461798 20.654,15.349 c 3.568,1.104 5.968996,0.663 7.169996,-1.327 l -24.886996,-18.412 c -9.19,-6.979 -27.57,-10.042 -55.14,-9.285 v 1.042 c 7.2,-0.158 12.632,-0.126 16.296,0.063 12.917,-0.347 24.886,3.853 35.907,12.57 z"
     fill="#6c7c8b"
     id="path19"
     style="clip-rule:evenodd;fill-rule:evenodd" />
  <text
     xml:space="preserve"
     style="font-style:normal;font-variant:normal;font-weight:bold;font-stretch:normal;font-size:14.8037px;line-height:1.25;font-family:sans-serif;-inkscape-font-specification:'sans-serif Bold';fill:#4c4948;fill-opacity:1;stroke:none;stroke-width:0.0771024"
     x="7.5854764"
     y="113.30054"
     id="text1924"><tspan
       sodipodi:role="line"
       id="tspan1922"
       style="font-style:normal;font-variant:normal;font-weight:bold;font-stretch:normal;font-size:14.8037px;font-family:sans-serif;-inkscape-font-specification:'sans-serif Bold';fill:#4c4948;fill-opacity:1;stroke-width:0.0771024"
       x="7.5854764"
       y="113.30054">Garuda Indonesia</tspan></text>
</svg>
