<?xml version="1.0" encoding="UTF-8" standalone="no"?>
<svg
   version="1.1"
   id="svg9506"
   image-rendering="optimizeQuality"
   shape-rendering="geometricPrecision"
   text-rendering="geometricPrecision"
   x="0px"
   y="0px"
   viewBox="0 0 1200 1200"
   xml:space="preserve"
   sodipodi:docname="lion-air.svg"
   width="1200"
   height="1200"
   inkscape:version="1.1.2 (0a00cf5339, 2022-02-04)"
   xmlns:inkscape="http://www.inkscape.org/namespaces/inkscape"
   xmlns:sodipodi="http://sodipodi.sourceforge.net/DTD/sodipodi-0.dtd"
   xmlns="http://www.w3.org/2000/svg"
   xmlns:svg="http://www.w3.org/2000/svg"><defs
   id="defs19" /><sodipodi:namedview
   id="namedview17"
   pagecolor="#505050"
   bordercolor="#eeeeee"
   borderopacity="1"
   inkscape:pageshadow="0"
   inkscape:pageopacity="0"
   inkscape:pagecheckerboard="0"
   showgrid="false"
   height="1200px"
   inkscape:zoom="0.324375"
   inkscape:cx="537.95761"
   inkscape:cy="619.65318"
   inkscape:window-width="1366"
   inkscape:window-height="695"
   inkscape:window-x="0"
   inkscape:window-y="0"
   inkscape:window-maximized="1"
   inkscape:current-layer="svg9506" />
<style
   type="text/css"
   id="style2">
	.st0{fill-rule:evenodd;clip-rule:evenodd;fill:#FB0102;}
</style>
<g
   id="Layer_x0020_1"
   transform="matrix(1.1909006,0,0,1.1909006,-115.21579,122.15031)">
	<g
   id="_118875824">
		<path
   id="path9484"
   class="st0"
   d="m 167.5,349 c -8.6,24.5 -17.2,49 -25.8,73.4 -0.6,2.1 -1.2,4.2 -1.6,6.2 -0.5,2 -0.8,4 -0.9,6 -0.2,2 -0.2,4.1 -0.1,6.1 0.1,2 0.5,3.7 1.2,5.9 0.7,2.1 1.7,4.6 3,6.8 1.3,2.2 3,4 4.9,5.5 1.9,1.5 4.1,2.7 6.8,3.7 2.6,0.9 5.7,1.6 8.3,1.9 2.6,0.3 4.7,0.3 6.7,0.3 h 59.4 c 0.5,0 1,-0.1 1.5,-0.2 0.5,-0.1 0.9,-0.4 1.4,-0.7 0.5,-0.3 1,-0.7 1.4,-1.2 0.5,-0.5 0.8,-1.1 1.2,-1.8 0.3,-0.6 0.6,-1.3 0.8,-2 2.1,-6.5 4.2,-13 5.8,-17.9 1.5,-4.8 2.5,-7.9 3.1,-9.8 0.6,-1.8 0.7,-2.3 0.7,-2.8 0,-0.5 0,-0.8 0,-1.2 -0.1,-0.4 -0.2,-0.8 -0.5,-1.1 -0.2,-0.3 -0.6,-0.6 -0.9,-0.8 -0.3,-0.2 -0.6,-0.3 -1,-0.4 -0.4,-0.1 -0.8,-0.1 -1.2,-0.1 h -43.3 c -0.7,0 -1.4,0 -2,-0.1 -0.6,-0.1 -1.2,-0.5 -1.7,-0.8 -0.5,-0.3 -0.9,-0.7 -1.3,-1.1 -0.4,-0.4 -0.7,-0.9 -0.9,-1.6 -0.2,-0.7 -0.4,-1.4 -0.4,-2.3 0,-0.8 0,-1.6 0.2,-2.6 0.2,-1 0.6,-2.2 0.9,-3.3 7.2,-21.2 14.4,-42.4 21.6,-63.6 0.1,-0.4 0.2,-0.8 0.2,-1.2 0,-0.5 -0.1,-1 -0.4,-1.4 -0.3,-0.4 -0.5,-0.7 -0.8,-1 -0.3,-0.3 -0.6,-0.4 -0.9,-0.4 -0.4,-0.1 -0.8,-0.1 -1.2,-0.1 h -39.2 c -0.3,0 -0.6,0 -1,0.1 -0.3,0.1 -0.7,0.2 -1,0.3 -0.3,0.1 -0.6,0.3 -0.9,0.5 -0.3,0.2 -0.6,0.4 -0.8,0.7 -0.3,0.2 -0.6,0.6 -0.8,0.9 -0.2,0.3 -0.3,0.8 -0.5,1.2 z" />
		<path
   id="path9486"
   class="st0"
   d="m 277.3,378.8 c -0.4,0 -0.7,0 -1.1,0.1 -0.4,0.1 -0.7,0.2 -1.1,0.4 -0.4,0.2 -0.6,0.3 -0.8,0.5 -0.2,0.2 -0.5,0.4 -0.6,0.7 -0.1,0.3 -0.3,0.5 -0.5,0.8 l -24.5,79.3 c -0.1,0.3 -0.1,0.6 -0.1,0.8 0,0.3 0,0.5 0.1,0.8 0.1,0.3 0.2,0.5 0.4,0.7 0.2,0.2 0.5,0.4 0.7,0.6 0.2,0.1 0.5,0.2 0.7,0.2 l 0.6,0.1 h 37.4 c 0.4,0 0.7,0 1.1,-0.1 0.4,-0.1 0.7,-0.3 1,-0.5 0.3,-0.2 0.6,-0.4 0.8,-0.7 0.2,-0.4 0.5,-0.9 0.7,-1.5 8.4,-26.4 16.7,-52.9 25.1,-79.4 0.1,-0.2 0.1,-0.5 0.1,-0.7 0,-0.2 0,-0.5 0,-0.8 0,-0.2 -0.1,-0.4 -0.2,-0.6 -0.1,-0.2 -0.3,-0.4 -0.5,-0.5 -0.2,-0.1 -0.4,-0.2 -0.6,-0.3 -0.2,0 -0.4,-0.1 -0.6,-0.1 z" />
		<path
   id="path9488"
   class="st0"
   d="m 389.4,422.2 c -7.5,15.8 -42.6,17.8 -35.1,-3.3 2.3,-6.4 10.8,-12.2 19.7,-12.9 10,-0.9 20.6,5.4 15.4,16.2 z m 39,-3.6 c 10.8,-37.3 -43.2,-61.9 -92.6,-26.5 -23.8,17 -32,50.5 -7.2,65.6 12.6,7.7 25.2,9.5 42.6,6.7 22,-3.5 50,-20.8 57.2,-45.8 z" />
		
			<ellipse
   id="ellipse9490"
   transform="matrix(0.9745,-0.2243,0.2243,0.9745,-71.5868,76.8112)"
   class="st0"
   cx="302.29999"
   cy="353.5"
   rx="25.6"
   ry="16.5" />
		<path
   id="path9492"
   class="st0"
   d="m 452.2,378.3 c -8.5,27.1 -17,54.3 -25.5,81.5 -0.1,0.5 -0.2,1 -0.2,1.5 0,0.5 0.1,0.9 0.3,1.2 0.2,0.4 0.4,0.6 0.7,0.8 0.3,0.2 0.6,0.4 0.8,0.4 0.2,0.1 0.5,0.1 0.7,0.1 h 37.2 c 0.4,0 0.7,0 1.1,-0.1 0.4,-0.1 0.8,-0.2 1.2,-0.4 0.4,-0.1 0.6,-0.3 0.8,-0.5 0.2,-0.2 0.5,-0.5 0.6,-0.8 0.1,-0.3 0.3,-0.6 0.4,-0.8 4.7,-15.9 9.4,-31.8 14,-47.7 0.3,-0.8 0.6,-1.6 1.2,-2.2 0.6,-0.5 1.4,-0.7 2.6,-1 1.2,-0.2 2.7,-0.4 4.8,-0.6 2,-0.1 4.6,-0.2 6.5,-0.3 1.9,-0.1 3.3,-0.1 4.3,0.1 1,0.2 1.7,0.5 2.1,0.8 0.5,0.3 0.8,0.6 1.1,1.1 0.3,0.5 0.6,1.1 0.7,2 0.1,0.9 0.1,2.2 0,3.3 -0.1,1.1 -0.5,2 -0.9,3.3 -0.5,1.3 -1,3.2 -3.2,9.9 -2.1,6.8 -5.8,18.5 -9.5,30.2 -0.1,0.2 -0.1,0.5 -0.1,0.8 0,0.3 0,0.6 0,0.9 0,0.3 0.1,0.6 0.3,0.8 0.2,0.2 0.4,0.5 0.7,0.7 0.3,0.2 0.6,0.3 0.9,0.3 0.3,0 0.5,0.1 0.7,0.1 h 38.1 c 0.5,0 0.9,0 1.3,-0.1 0.4,-0.1 0.7,-0.3 1,-0.5 0.3,-0.2 0.5,-0.5 0.7,-0.7 0.2,-0.2 0.3,-0.5 0.4,-0.7 4.4,-14.4 8.8,-28.9 13.2,-43.3 0.3,-1 0.6,-2 0.9,-3.7 0.3,-1.6 0.6,-4 0.8,-5.8 0.1,-1.9 0.1,-3.3 0,-5.1 -0.1,-1.8 -0.4,-3.9 -0.7,-5.6 -0.3,-1.7 -0.6,-2.9 -1.1,-4 -0.5,-1.1 -1.1,-2 -1.8,-3.2 -0.7,-1.2 -1.6,-2.7 -2.7,-4.1 -1.1,-1.4 -2.3,-2.6 -3.8,-3.8 -1.5,-1.2 -3.4,-2.4 -5,-3.3 -1.6,-0.9 -3.2,-1.5 -4.7,-2.1 -1.5,-0.6 -3,-1.2 -4.9,-1.6 -1.9,-0.5 -4.1,-0.8 -7.4,-0.9 -3.4,-0.1 -7.8,-0.1 -11.6,0 -3.7,0.1 -6.7,0.4 -9.4,0.7 -2.6,0.4 -5,0.8 -7.1,1.3 -2.2,0.5 -4.1,1 -6.2,1.6 -2,0.6 -4.1,1.1 -6.3,1.4 -2.2,0.3 -4.4,0.3 -6.1,0.1 -1.6,-0.1 -2.6,-0.4 -3.7,-0.7 -1.2,-0.3 -2.5,-0.6 -3.7,-0.8 -1.2,-0.3 -2.3,-0.5 -3.6,-0.6 -1.3,-0.1 -2.9,-0.2 -4.8,-0.2 -1.9,0 -4.1,0.3 -6.1,0.3 z" />
		<path
   id="path9494"
   class="st0"
   d="m 936,376.8 c -0.2,0 -0.5,0 -0.7,0.1 -0.2,0.1 -0.5,0.1 -0.7,0.3 -0.2,0.1 -0.4,0.3 -0.6,0.5 -0.1,0.2 -0.3,0.4 -0.4,0.6 -0.1,0.2 -0.2,0.5 -0.3,0.7 -8.4,27.4 -16.8,54.7 -25.2,82.1 0,0.2 -0.1,0.5 -0.1,0.8 0,0.3 0.1,0.5 0.2,0.8 0.1,0.2 0.3,0.5 0.5,0.6 0.2,0.2 0.5,0.3 0.8,0.4 0.3,0.1 0.5,0.1 0.8,0.1 h 39.1 c 0.4,0 0.7,0 1,-0.1 0.3,-0.1 0.6,-0.3 0.8,-0.5 0.2,-0.2 0.4,-0.5 0.5,-0.7 0.1,-0.2 0.2,-0.5 0.2,-0.7 l 25.6,-82.6 c 0,-0.2 0.1,-0.4 0.1,-0.5 0,-0.1 0,-0.4 -0.1,-0.6 -0.1,-0.2 -0.1,-0.4 -0.3,-0.5 -0.1,-0.1 -0.3,-0.3 -0.5,-0.4 -0.2,-0.1 -0.4,-0.1 -0.7,-0.1 -0.2,0 -0.5,0 -0.7,0 z" />
		
			<ellipse
   id="ellipse9496"
   transform="matrix(0.9745,-0.2243,0.2243,0.9745,-54.4795,224.6814)"
   class="st0"
   cx="961.79999"
   cy="352.20001"
   rx="25.6"
   ry="16.5" />
		<path
   id="path9498"
   class="st0"
   d="m 864.4,415.3 c -2.9,9.6 -8.5,28 -14.1,46.4 0,0.1 0,0.3 0,0.5 0,0.2 0.1,0.5 0.2,0.7 0.1,0.2 0.4,0.4 0.6,0.5 0.2,0.1 0.4,0.1 0.6,0.1 0.1,0 0.3,0 0.4,0 h 39.1 c 0.2,0 0.5,0 0.7,-0.1 0.2,0 0.4,-0.1 0.6,-0.2 0.2,-0.1 0.4,-0.2 0.7,-0.3 0.2,-0.1 0.5,-0.4 0.6,-0.6 0.2,-0.2 0.4,-0.5 0.5,-0.8 8.7,-27.7 17.3,-55.3 25.9,-83 0.1,-0.4 0.2,-0.7 0.1,-1 -0.1,-0.3 -0.2,-0.6 -0.5,-0.7 -0.3,-0.1 -0.4,-0.1 -0.6,-0.1 -4.8,0 -9.5,0 -12.7,-0.1 -3.2,-0.1 -4.7,-0.4 -6.2,-0.7 -1.5,-0.3 -2.8,-0.6 -4.2,-1.1 -1.4,-0.5 -2.9,-1 -4.2,-1.5 -1.3,-0.5 -2.4,-0.8 -4.1,-1.2 -1.8,-0.5 -4.1,-1.1 -6.2,-1.5 -2,-0.5 -3.7,-0.8 -6.1,-1.1 -2.3,-0.3 -5.3,-0.6 -8.1,-0.8 -2.8,-0.1 -5.4,-0.1 -8.1,0 -2.7,0.1 -5.6,0.5 -7.9,0.8 -2.2,0.3 -3.9,0.7 -5.4,1.1 -1.6,0.5 -3.2,1 -4.7,1.6 -1.5,0.6 -3.1,1.2 -4.7,1.9 -1.6,0.7 -3.2,1.6 -5,2.6 -1.8,1 -3.7,2.1 -5.7,3.5 -2,1.4 -4,3.1 -6,4.9 -2,1.8 -4.1,3.7 -6,5.7 -2,2 -3.9,4.2 -5.6,6.9 -1.7,2.7 -3.5,5.6 -5,8.4 -1.5,2.8 -2.7,5.3 -3.7,7.5 -1,2.3 -1.9,4.4 -2.7,7.3 -0.8,2.9 -1.6,6.7 -2,9.8 -0.4,3.1 -0.4,5.7 -0.2,7.8 0.1,2 0.5,3.5 0.8,4.9 0.3,1.4 0.6,2.6 0.9,3.6 0.3,1.1 0.6,2 1,2.9 0.4,0.9 0.8,1.8 1.3,2.7 0.5,0.9 1.1,1.8 1.8,2.7 0.7,0.9 1.5,1.8 2.2,2.6 0.7,0.8 1.3,1.4 2.1,2 0.8,0.6 1.7,1.2 2.7,1.8 1.1,0.6 2.3,1.2 3.7,1.6 1.4,0.5 3,0.8 4.6,0.9 1.6,0.2 3.2,0.2 4.7,0.2 1.5,0 2.9,0 4.2,-0.1 1.3,-0.1 2.4,-0.5 3.7,-0.9 1.3,-0.5 2.8,-1.1 4.2,-1.6 1.4,-0.6 2.6,-1.2 3.9,-2 1.3,-0.8 2.8,-1.7 4.2,-2.6 1.4,-0.9 2.6,-1.8 3.7,-2.9 1.2,-1.1 2.4,-2.2 3.3,-3.3 0.9,-1.1 1.5,-1.9 2.1,-2.8 0.6,-0.9 1.2,-1.9 1.8,-2.9 0.6,-1.1 1.2,-2.2 1.7,-3.4 0.5,-1.2 0.7,-2.4 1.1,-3.6 -0.6,0.3 -1.2,0.6 -2,0.9 -0.8,0.3 -1.8,0.6 -3.3,1.1 -1.5,0.5 -3.4,1.1 -5.1,1.3 -1.8,0.3 -3.3,0.3 -4.5,0.1 -1.2,-0.1 -2.1,-0.4 -3.1,-0.9 -0.9,-0.5 -1.9,-1 -2.7,-1.8 -0.8,-0.8 -1.5,-1.7 -2,-2.6 -0.5,-0.9 -0.7,-1.9 -0.8,-3.4 -0.1,-1.5 -0.1,-3.4 0.1,-5 0.1,-1.6 0.5,-3 0.7,-4.4 0.3,-1.4 0.6,-2.8 1.1,-4.3 0.5,-1.5 1.1,-3 1.8,-4.7 0.7,-1.7 1.6,-3.5 2.7,-5.3 1.1,-1.8 2.2,-3.6 3.9,-5.6 1.6,-2 3.8,-4.1 5.7,-5.6 1.9,-1.5 3.5,-2.4 5.1,-3 1.6,-0.6 3.1,-0.9 4.5,-1.1 1.4,-0.1 2.8,-0.1 4.1,0 1.3,0.2 2.5,0.5 3.4,0.9 0.9,0.5 1.5,1 2,1.6 0.5,0.6 0.9,1.2 1.2,2 0.3,0.8 0.5,1.7 0.6,2.6 0.1,0.9 0.1,1.8 0,2.7 -0.1,0.9 -0.2,1.8 -3.2,11.5 z" />
		<path
   id="path9500"
   class="st0"
   d="m 991.6,376.8 c -8.7,27.9 -17.3,55.8 -26,83.7 -0.1,0.3 -0.1,0.7 -0.1,1 0,0.3 0.1,0.7 0.3,1.1 0.2,0.3 0.5,0.5 0.8,0.7 0.4,0.1 0.8,0.2 1.1,0.3 0.3,0 0.5,0 0.7,0 h 36.4 c 0.3,0 0.6,0 1.1,-0.1 0.4,-0.1 1,-0.3 1.5,-0.6 0.5,-0.3 1.1,-0.7 1.4,-1.2 0.3,-0.5 0.6,-1.1 0.8,-1.6 3.9,-13.3 7.7,-26.7 11.6,-40.1 0.4,-1.1 0.8,-2.2 1.2,-3.2 0.5,-0.9 1,-1.7 1.6,-2.3 0.6,-0.6 1.2,-1.2 1.8,-1.6 0.6,-0.5 1.2,-0.9 1.9,-1.3 0.7,-0.4 1.4,-0.7 2.2,-1 0.8,-0.3 1.8,-0.6 2.7,-0.7 0.9,-0.2 1.8,-0.3 2.7,-0.3 0.9,0 1.7,0.1 2.4,0.2 0.7,0.1 1.2,0.3 1.9,0.5 0.7,0.2 1.5,0.5 2.3,0.8 6.8,-8.2 13.5,-16.4 20.2,-24.6 -0.3,-0.9 -0.6,-1.7 -1.1,-2.6 -0.5,-0.9 -1.1,-1.7 -1.9,-2.6 -0.8,-0.9 -1.8,-1.7 -2.9,-2.5 -1.1,-0.7 -2.2,-1.3 -3.4,-1.7 -1.2,-0.5 -2.3,-0.8 -3.8,-1.1 -1.4,-0.3 -3.2,-0.6 -5.6,-0.7 -2.4,-0.1 -5.6,0 -8.4,0.2 -2.8,0.2 -5.3,0.7 -7.8,1 -2.5,0.4 -4.8,0.7 -7.2,0.9 -2.3,0.2 -4.7,0.4 -7.1,0.4 -2.3,0 -4.7,0 -6.5,-0.2 -1.8,-0.2 -3.1,-0.5 -5.5,-0.6 -2.2,-0.1 -5.7,-0.1 -9.3,-0.2 z" />
		<path
   id="path9502"
   class="st0"
   d="m 765.5,340.8 c -0.5,2.3 -2.6,5.4 -3.7,7.4 -0.7,-0.5 -1.8,-1.9 -2.6,-2.8 -1.1,-1.1 -1.6,-2.1 -2.3,-3.4 1.8,0 3.3,-0.1 4.6,-0.4 1.9,-0.3 2.5,-0.7 4,-0.8 z m -53.7,148.3 c -0.2,-1.4 -0.5,-3.2 -0.7,-5 l 4.6,-0.3 h 0.1 c 2.5,-0.2 6.8,-0.8 13.8,-4.5 4.3,-2.3 10.3,-8.3 13.1,-12.3 4.4,-6.3 6.8,-14.2 6.8,-22.3 v -0.4 c 0,-2.1 -0.2,-4.2 -0.5,-6.2 0,-0.1 0,-0.3 -0.1,-0.5 v -0.1 c -0.6,-3.7 -1.8,-7.3 -3.5,-10.8 -4.9,-10.2 -14.4,-17.3 -25.2,-20.2 -2.2,-0.6 -4.5,-1 -6.8,-1.2 h -0.4 -0.4 c -6.4,-0.5 -13.1,0.6 -19.2,3.4 -0.6,0.3 -1.2,0.5 -1.7,0.8 -4.7,2.4 -8.9,5.7 -12.3,9.7 l -0.1,0.1 -0.7,-0.3 c -12.3,-5.9 -30.3,-40 -34.6,-55.5 -5.3,-19.2 -8.7,-51.8 -4.3,-71.7 0.7,-3.1 1.5,-7.4 1.8,-8.9 -12.4,-7.9 -29.6,2.8 -31.5,27.2 -3.1,39.2 20.9,80.2 49,104.6 4.1,3.5 7.2,5.8 9.4,7.6 l 6,4.4 c -0.9,1.7 -1.6,3.5 -2.3,5.3 -4.3,-2.6 -8.1,-5 -12.8,-8.5 -4.1,-3 -7.8,-5.9 -11.7,-9.1 -8.4,-7.2 -12.9,-12.2 -20.5,-21.1 -9.5,-11 -25.8,-38.5 -26.6,-57.5 -18.4,-2.5 -29.9,32.4 4.6,64.1 22.3,20.6 37,26.8 65.4,38.7 -0.2,1.4 -0.4,2.9 -0.5,4.3 v 0.4 c -4.6,0.4 -21.5,-5 -26.4,-6.8 -44.4,-16.1 -54.7,-35.4 -59.9,-40.8 -7.2,5.1 -8.4,20 -2,28.6 10.9,14.5 34.4,22.9 52.8,25 11.4,1.3 20.2,1.9 31.7,1.4 l 4.2,-0.4 c 0.3,2 0.7,3.9 1.2,5.7 l -0.6,0.1 -0.8,0.2 v 0 c -24.1,4.9 -43.3,3.9 -66.3,-3.5 -6.6,-2.1 -15.1,-7.1 -16.2,-7.7 -2.1,1.7 -6,31.1 34,31.4 10.1,0.1 20.1,-1.9 28.8,-4.7 8.2,-2.6 15.6,-5.8 23.8,-9 0.8,1.5 1.7,3 2.7,4.4 l -1.2,1.1 c -0.2,0.3 -0.6,0.5 -0.9,0.8 -5.5,4.7 -19.2,10.5 -26.2,12.8 -15.8,5.1 -22.7,4.3 -38.3,2.5 1.9,20.8 25.2,18.3 38.5,13.1 13.4,-5.3 22.3,-15.3 32.2,-25.2 1.1,1.2 2.3,2.2 3.6,3.3 -0.8,1.9 -1.8,3.5 -2.9,5.1 -5.7,8.4 -20,19.2 -28.4,23.1 -8.7,4 -13.7,4.2 -15,4.4 0.8,5.4 6.5,8.4 13.1,8.3 20,-0.2 32.9,-25.7 36.6,-33.1 l 2.1,-4.1 c 1.3,0.8 2.7,1.4 4.2,2 l -1.5,5 c -0.1,0.2 -0.1,0.5 -0.2,0.7 v 0 c -0.9,2.7 -2.5,6.3 -5.3,10.9 -10.2,17.1 -19.4,19.7 -20.4,20.2 2.3,4.1 9.4,5.1 14.7,3 13,-5.3 15,-24.4 17.2,-35.2 l 0.6,-2.9 c 1.4,0.4 2.8,0.7 4.3,0.9 v 0.2 c 2.4,22.4 -7.7,33.3 -8.3,34.3 6.9,1.2 12.9,-0.1 16.1,-5.3 3.1,-5.1 1.6,-13.7 0.8,-19.9 7,-0.2 15.2,-2.6 20.5,-4.4 16.9,-5.6 28.1,-20 32.8,-36.8 0.5,-1.6 1.2,-3.3 1.5,-5 2.7,0 5.7,-0.3 5.7,-3.7 0,-0.7 -0.7,-2.9 -1,-3.5 -1.1,-1.7 -5.5,-4.5 -5.5,-9.2 0,-1 0.6,-2.7 0.8,-3.7 2.2,-0.2 5.3,-2.5 5.3,-4.9 0,-3.7 -6.2,-5.6 -8.5,-7.8 -2.2,-2.2 -5,-7.9 -5,-11.3 0,-2.1 -1.1,-7.4 2,-7.4 3.3,0 16.4,6.7 16.4,-13.5 -5.1,2.5 -8.8,4.1 -14,0.1 -6,-4.7 -1,-20.9 10.3,-20.9 2.5,0 4.2,0.5 5.4,1.9 1.1,1.2 1.9,3.7 1.9,5.8 2.3,-1.5 3.9,-3.5 5.6,-5.8 1,-1.4 3,-6.7 3,-8.9 0,-1.5 -0.8,-2 -0.7,-3.2 0.2,-1.9 2.8,-4.5 -0.5,-6.6 -2.7,-1.7 -7.9,1.4 -16.9,-3.1 -1.2,-0.6 -2.5,-1.5 -3.5,-1.8 0,-2.3 0.8,-2.6 0.8,-4.9 0,-3.6 -11.1,-8.1 -15,-10.4 -2.7,-1.6 -5.1,-3.3 -7.2,-5.4 -2.9,-3 -4.4,-5.4 -4.8,-7 -0.6,-0.3 -1.2,-0.5 -2.1,-0.5 -3.4,0 -5.9,2.6 -6.5,5.3 -0.7,-0.8 -1.3,-1.3 -2.3,-2 -1.1,-0.7 -2.2,-1.3 -3.3,-1.8 -7.5,-3.2 -12.5,-3.4 -20.6,-7.6 -3,2 -5.5,5.2 -4.5,9.4 -3.8,-2 -7.2,-1.6 -11.2,-1.1 -2.5,0.4 -10.3,1.4 -12.3,1.3 -2,0 -4.7,-0.4 -6.3,-0.7 -0.2,2.3 -1.2,4.1 -1.2,6.9 0,2.8 0.8,4.5 1.2,5.3 -4.6,0 -6.9,0 -10.6,0.8 -3.9,0.8 -6.7,1 -10.6,0.8 -1.2,4.9 -1.3,7.4 1.3,12.2 0.9,1.8 3.1,4.9 4,5.8 -2,0.7 -5.7,1.4 -7.8,1.6 0,5.8 2.5,13.9 4,19.3 4.4,15.9 12.3,29.2 22.2,42 1,1.3 1.9,2.3 2.9,3.3 1,-1 1.8,-1.6 2.9,-2.5 9.2,-7.2 18,-10.2 30.6,-10.2 6,0 13.3,2.1 17.4,4.2 5.5,2.8 8.8,5 12.9,9.2 5.9,5.9 9.5,12.9 11.6,21.1 4.2,16.6 -1.7,36.4 -15.6,46.5 -2.5,1.8 -4.7,3 -7.5,4.4 -4.4,2.2 -12.4,4.3 -18.6,4.5 z m 8,-153.6 c 0,1.5 1.4,4.3 0.8,4.5 -3.3,-0.3 -4.9,-3.4 -4.9,-6.9 0,-6.7 12.3,-9 14.3,-0.4 -1.5,-0.7 -4.4,-1.6 -6.1,-1.6 -2,-0.2 -4.2,2.4 -4.1,4.4 z" />
	</g>
</g>
</svg>
