<?xml version="1.0" encoding="UTF-8" standalone="no"?>
<svg
   width="209mm"
   height="209mm"
   viewBox="0 0 209 209"
   version="1.1"
   id="svg8"
   inkscape:version="1.1.2 (0a00cf5339, 2022-02-04)"
   sodipodi:docname="sriwijaya-air.svg"
   xmlns:inkscape="http://www.inkscape.org/namespaces/inkscape"
   xmlns:sodipodi="http://sodipodi.sourceforge.net/DTD/sodipodi-0.dtd"
   xmlns="http://www.w3.org/2000/svg"
   xmlns:svg="http://www.w3.org/2000/svg"
   xmlns:rdf="http://www.w3.org/1999/02/22-rdf-syntax-ns#"
   xmlns:cc="http://creativecommons.org/ns#"
   xmlns:dc="http://purl.org/dc/elements/1.1/">
  <defs
     id="defs2" />
  <sodipodi:namedview
     id="base"
     pagecolor="#ffffff"
     bordercolor="#666666"
     borderopacity="1.0"
     inkscape:pageopacity="0.0"
     inkscape:pageshadow="2"
     inkscape:zoom="0.64"
     inkscape:cx="630.46875"
     inkscape:cy="271.875"
     inkscape:document-units="mm"
     inkscape:current-layer="layer1"
     showgrid="false"
     showborder="false"
     fit-margin-top="0"
     fit-margin-left="0"
     fit-margin-right="0"
     fit-margin-bottom="0"
     inkscape:window-width="1366"
     inkscape:window-height="695"
     inkscape:window-x="0"
     inkscape:window-y="0"
     inkscape:window-maximized="1"
     inkscape:pagecheckerboard="0"
     width="209mm" />
  <metadata
     id="metadata5">
    <rdf:RDF>
      <cc:Work
         rdf:about="">
        <dc:format>image/svg+xml</dc:format>
        <dc:type
           rdf:resource="http://purl.org/dc/dcmitype/StillImage" />
      </cc:Work>
    </rdf:RDF>
  </metadata>
  <g
     inkscape:label="Layer 1"
     inkscape:groupmode="layer"
     id="layer1"
     transform="translate(110.7557,-262.2995)">
    <g
       id="g964"
       transform="translate(0.15658582,30.579979)">
      <path
         d="m 12.698427,401.92569 c -1.206746,-0.35815 -1.045473,-1.56795 0.245931,-1.84491 1.102682,-0.23648 1.930612,0.49905 1.421122,1.26253 -0.326949,0.48995 -1.085554,0.75497 -1.667053,0.58238 z m 77.54454,5.77974 c 0,-0.0426 0.24765,-0.89525 0.55033,-1.89475 0.30268,-0.99951 0.55033,-1.84205 0.55033,-1.87233 0,-0.0303 -0.2286,-0.055 -0.508,-0.055 -0.57016,0 -0.56701,0.006 -0.35304,-0.635 l 0.14138,-0.42333 0.65059,-0.059 c 0.35783,-0.0324 0.97996,-0.13722 1.38252,-0.23283 0.86436,-0.20528 1.31122,-0.22487 1.31122,-0.0575 0,0.064 -0.0576,0.27948 -0.12791,0.47887 -0.0703,0.19938 -0.11585,0.37457 -0.10111,0.3893 0.0147,0.0147 0.16572,-0.0877 0.33553,-0.2277 0.8207,-0.67649 2.07824,-0.94391 2.79867,-0.59515 0.67403,0.32629 0.74234,1.02387 0.14009,1.43049 -0.24318,0.16418 -0.37357,0.19199 -0.75927,0.16196 -0.25612,-0.0199 -0.63712,-0.093 -0.84667,-0.1624 -0.52344,-0.17329 -0.85533,-0.0671 -1.35634,0.43389 -0.49621,0.49621 -0.76611,1.00796 -1.23132,2.33471 l -0.35624,1.016 -1.11039,0.0236 c -0.63223,0.0135 -1.11037,-0.01 -1.11037,-0.0538 z m -31.67982,0.0298 c -0.0261,-0.0261 0.20907,-0.89399 0.52269,-1.92858 l 0.57021,-1.88105 -0.43337,-0.0235 c -0.66369,-0.036 -0.65884,-0.0298 -0.46796,-0.59501 l 0.16884,-0.49997 0.65254,-0.053 c 0.35889,-0.0291 0.96927,-0.12992 1.35639,-0.22394 0.58803,-0.14279 1.37224,-0.22854 1.36983,-0.14976 0,0.0116 -0.0736,0.26105 -0.16275,0.55424 l -0.16211,0.53307 0.34309,-0.30996 c 0.74021,-0.66873 1.96145,-0.97109 2.73267,-0.67656 0.45991,0.17564 0.63641,0.40291 0.63641,0.81944 0,0.25007 -0.0587,0.36258 -0.29928,0.57383 -0.24935,0.21894 -0.36985,0.26277 -0.72238,0.26277 -0.23271,0 -0.55988,-0.0571 -0.72706,-0.127 -0.64817,-0.27082 -1.12251,-0.13323 -1.69982,0.49308 -0.4434,0.48104 -0.63962,0.86111 -1.12231,2.17392 l -0.38912,1.05833 -1.05949,0.0236 c -0.58273,0.013 -1.08088,0.002 -1.10702,-0.024 z m -13.486343,-4.26511 c 0.483295,-0.21952 0.800828,-0.62314 0.800828,-1.01792 0,-0.56669 -0.500769,-0.85493 -1.485324,-0.85493 h -0.512775 l -0.266175,0.86963 c -0.146397,0.4783 -0.291448,0.9355 -0.322343,1.016 -0.05066,0.13201 0.01743,0.14618 0.693725,0.14451 0.543653,-10e-4 0.844,-0.0446 1.092064,-0.15729 z m -6.670344,4.25908 c -0.02681,-0.0268 0.02749,-0.27444 0.120658,-0.55033 l 0.169393,-0.5016 h 0.45317 c 0.741934,0 0.765776,-0.041 1.571007,-2.69855 0.674928,-2.22755 0.69601,-2.32209 0.542721,-2.43417 -0.08771,-0.0641 -0.345262,-0.11661 -0.572329,-0.11661 -0.457708,0 -0.442587,0.0538 -0.190365,-0.67734 l 0.102227,-0.29633 2.573849,-0.0234 c 2.890461,-0.0263 3.512295,0.0336 4.29177,0.41308 1.541145,0.75037 1.305476,2.56191 -0.447929,3.44311 -0.716923,0.3603 -1.233999,0.45868 -2.706928,0.51497 l -1.436929,0.0549 -0.242375,0.78705 c -0.293201,0.95209 -0.259707,1.03328 0.426322,1.03328 0.335872,0 0.453551,0.0293 0.425297,0.10583 -0.02148,0.0582 -0.104817,0.30586 -0.185191,0.55034 l -0.146135,0.4445 h -2.349754 c -1.29236,0 -2.371682,-0.0219 -2.398479,-0.0487 z m -53.234825,-0.0483 c 0,-0.0549 0.06411,-0.30309 0.142461,-0.55166 l 0.14246,-0.45194 h 0.455777 c 0.503581,0 0.732968,-0.0878 0.822994,-0.31515 0.165447,-0.41775 1.399642,-4.48389 1.399642,-4.61122 0,-0.19976 -0.256269,-0.32296 -0.671771,-0.32296 -0.393404,0 -0.406891,-0.04 -0.209271,-0.61992 l 0.134959,-0.39608 h 3.745814 3.745814 l 0.437227,1.04115 c 0.240479,0.57264 0.437227,1.08092 0.437227,1.12952 0,0.0486 -0.219075,0.13526 -0.486833,0.19254 -0.267758,0.0573 -0.546744,0.12093 -0.619972,0.14141 -0.08494,0.0238 -0.232232,-0.10072 -0.406831,-0.34384 -0.150521,-0.20961 -0.433511,-0.47391 -0.628854,-0.58734 -0.427753,-0.24838 -1.444354,-0.41002 -2.341549,-0.37232 l -0.631707,0.0265 -0.27763,0.889 c -0.152705,0.48895 -0.278012,0.92216 -0.278469,0.96268 -0.0014,0.1295 0.983886,0.009 1.22671,-0.15047 0.12772,-0.0837 0.290551,-0.30066 0.361848,-0.48218 l 0.129642,-0.33003 h 0.673549 c 0.502581,0 0.663939,0.0269 0.635694,0.10584 -0.02081,0.0582 -0.240978,0.76306 -0.489255,1.56633 l -0.451409,1.4605 h -0.658816 -0.658809 l 0.04911,-0.41459 c 0.04324,-0.36509 0.02729,-0.42628 -0.133528,-0.51234 -0.100448,-0.0538 -0.380077,-0.0863 -0.621411,-0.0722 l -0.438785,0.0255 -0.275124,0.88421 c -0.323774,1.04057 -0.302421,1.10546 0.363796,1.10546 0.512004,0 0.51225,8.5e-4 0.300346,0.635 l -0.141376,0.42333 -2.391833,0.0225 c -1.79142,0.0168 -2.391834,-0.003 -2.391834,-0.0772 z m -11.260666,-0.0282 c 0,-0.1024 0.941358,-3.29905 1.078865,-3.66359 0.02922,-0.0775 -0.09865,-0.10583 -0.477139,-0.10583 -0.318482,0 -0.517059,-0.0356 -0.517059,-0.0928 0,-0.051 0.05823,-0.29313 0.129413,-0.53797 l 0.129413,-0.44517 0.653754,-0.0531 c 0.359562,-0.0292 0.970491,-0.13001 1.357613,-0.22403 0.387129,-0.094 0.854583,-0.17093 1.038783,-0.17093 0.322699,0 0.332842,0.008 0.278071,0.23283 -0.03127,0.12806 -0.107764,0.37928 -0.169994,0.55827 l -0.11314,0.32543 0.278765,-0.24476 c 0.430547,-0.37803 0.816568,-0.58958 1.364234,-0.74767 1.256242,-0.36262 2.358449,0.17647 2.08081,1.01773 -0.187494,0.56812 -1.024729,0.81184 -1.749111,0.50917 -1.167503,-0.48781 -2.066062,0.42319 -2.901967,2.94217 l -0.273939,0.8255 h -1.09369 c -0.908922,0 -1.093682,-0.0212 -1.093682,-0.12525 z m -27.113841,0.0765 c -0.0268,-0.0268 0.0275,-0.27445 0.120661,-0.55034 l 0.169394,-0.5016 h 0.484044 c 0.266225,0 0.549445,-0.0478 0.629377,-0.10626 0.07993,-0.0584 0.256849,-0.47771 0.393149,-0.93169 l 0.247818,-0.82541 -0.887035,-1.54482 c -0.487869,-0.84965 -0.951786,-1.59335 -1.030927,-1.65268 -0.07914,-0.0593 -0.289841,-0.1312 -0.468221,-0.15972 -0.25337,-0.0405 -0.312801,-0.0818 -0.271638,-0.18847 0.02898,-0.0751 0.09611,-0.29854 0.149182,-0.49645 l 0.09649,-0.35983 h 2.310773 c 1.79286,0 2.310485,0.0237 2.309488,0.10583 -6.77e-4,0.0582 -0.05236,0.27729 -0.114781,0.48684 l -0.113495,0.381 -0.45672,0.0432 c -0.509933,0.0483 -0.668385,0.11985 -0.668385,0.30198 0,0.10517 0.79892,1.78387 0.901462,1.89415 0.0463,0.0498 1.707824,-1.59808 1.824302,-1.80931 0.122084,-0.22141 -0.112248,-0.38771 -0.546319,-0.38771 -0.272361,0 -0.320936,-0.0252 -0.285549,-0.14817 0.02345,-0.0815 0.0892,-0.31009 0.146107,-0.508 l 0.103467,-0.35983 h 2.060931 c 1.133513,0 2.060932,0.0312 2.060932,0.0693 0,0.0381 -0.05863,0.26672 -0.13028,0.508 -0.115066,0.38747 -0.157087,0.43896 -0.359834,0.44092 -0.451753,0.004 -0.882319,0.31555 -2.515653,1.81811 l -1.656634,1.524 -0.256593,0.83141 c -0.308041,0.99812 -0.279305,1.07359 0.408752,1.07359 0.335875,0 0.453551,0.0293 0.4253,0.10584 -0.02148,0.0582 -0.104822,0.30586 -0.185197,0.55033 l -0.146136,0.4445 h -2.349752 c -1.292362,0 -2.37168,-0.0219 -2.398482,-0.0487 z m 139.524319,-3.30503 c 0.94567,-0.19685 1.31554,-0.61232 0.82895,-0.93116 -0.53328,-0.34941 -2.02107,0.27002 -2.42328,1.00892 -0.0775,0.14243 -0.0463,0.14941 0.45145,0.10092 0.2941,-0.0286 0.8084,-0.10906 1.14288,-0.17868 z m -2.32889,3.3536 c -1.35449,-0.28789 -2.14812,-1.10061 -2.14289,-2.19439 0.004,-0.84292 0.46041,-1.56768 1.35513,-2.15201 1.16939,-0.76372 2.08682,-1.02098 3.6515,-1.02392 1.02059,-0.002 1.19067,0.0192 1.58812,0.19719 0.59266,0.26542 0.95206,0.6776 0.95132,1.09107 -0.002,1.03521 -1.42043,1.67474 -4.09905,1.84792 l -0.89572,0.0579 v 0.23276 c 0,0.15946 0.0922,0.3137 0.29276,0.4898 0.56913,0.49971 1.55188,0.44628 2.79575,-0.15198 l 0.6755,-0.3249 0.40746,0.34114 c 0.2241,0.18763 0.39364,0.38255 0.37677,0.43317 -0.0522,0.15667 -1.16926,0.72234 -1.88124,0.95266 -0.5344,0.17288 -0.89174,0.22569 -1.69334,0.25026 -0.5588,0.0171 -1.18073,-0.004 -1.38207,-0.0467 z m -5.62684,-0.008 c -0.43058,-0.10139 -0.73749,-0.26888 -0.99209,-0.54139 -0.29444,-0.31518 -0.26593,-0.68717 0.1599,-2.08582 0.19311,-0.63433 0.32864,-1.21191 0.30116,-1.28353 -0.0727,-0.18938 -0.41634,-0.24874 -0.81642,-0.14101 -0.41629,0.1121 -1.24412,0.86419 -1.57932,1.43484 -0.12309,0.20955 -0.39537,0.8763 -0.60506,1.48167 l -0.38126,1.10066 -1.12406,0.0236 -1.12407,0.0236 0.0506,-0.20154 c 0.0278,-0.11085 0.28956,-0.97874 0.58165,-1.92864 l 0.53107,-1.7271 -0.47358,-0.0258 c -0.26048,-0.0142 -0.50237,-0.0544 -0.53754,-0.0893 -0.0352,-0.0349 0.006,-0.27098 0.0925,-0.52452 l 0.15649,-0.46098 0.66946,-0.0662 c 0.3682,-0.0364 0.98678,-0.1412 1.37464,-0.23283 0.62713,-0.14817 1.36915,-0.22129 1.36915,-0.13492 0,0.0174 -0.0571,0.19367 -0.127,0.39164 -0.18483,0.52385 -0.16487,0.54572 0.23561,0.25812 0.77885,-0.55934 1.97066,-0.80887 2.85265,-0.59728 0.3226,0.0774 0.54703,0.20455 0.81617,0.46244 0.48127,0.46113 0.48127,0.64643 2e-5,2.24739 -0.20297,0.67522 -0.35081,1.27529 -0.32852,1.3335 0.0629,0.16434 0.6263,0.12415 0.93991,-0.067 l 0.28251,-0.17224 0.35249,0.31846 c 0.19387,0.17515 0.35249,0.35415 0.35249,0.39779 0,0.1526 -1.04473,0.65087 -1.62046,0.77285 -0.64818,0.13733 -0.93911,0.14427 -1.40912,0.0336 z m -10.92096,-0.0435 c -0.24789,-0.0762 -0.55036,-0.26452 -0.78317,-0.48758 -0.33785,-0.32373 -0.37918,-0.40432 -0.37831,-0.73778 8.5e-4,-0.20589 0.172,-0.94257 0.381,-1.63707 0.20901,-0.6945 0.38002,-1.27552 0.38002,-1.29117 0,-0.0156 -0.23336,-0.0284 -0.51858,-0.0284 h -0.51859 l 0.0468,-0.23283 c 0.1149,-0.57217 0.20272,-0.67902 0.66965,-0.81476 0.64268,-0.18683 1.2183,-0.59936 1.6449,-1.17885 0.20305,-0.27584 0.36919,-0.53543 0.36919,-0.57687 0,-0.0414 0.32385,-0.0754 0.71967,-0.0754 0.53387,0 0.71967,0.0284 0.71967,0.11001 0,0.0605 -0.1099,0.46055 -0.24423,0.889 l -0.24422,0.77899 h 1.00622 c 0.70795,0 1.00623,0.0292 1.00623,0.0984 0,0.0541 -0.0641,0.30177 -0.14246,0.55033 l -0.14246,0.45194 h -1.03775 -1.03775 l -0.22585,0.74084 c -0.12422,0.40745 -0.29748,0.96943 -0.38503,1.24883 -0.2096,0.66888 -0.20625,0.94369 0.0129,1.06099 0.29459,0.15766 1.02464,-0.0893 1.64603,-0.55687 l 0.254,-0.19111 0.4445,0.28723 c 0.24448,0.15799 0.44333,0.31616 0.44189,0.35151 -0.003,0.0803 -0.58176,0.51544 -1.14039,0.85774 -0.8007,0.49062 -2.06045,0.65447 -2.94387,0.38288 z m -15.17211,-1.2567 c 0.49118,-0.20523 0.86912,-0.54789 1.25354,-1.1365 0.33901,-0.51907 0.78089,-1.43584 0.71817,-1.48996 -0.15409,-0.13295 -0.66508,-0.31721 -0.98411,-0.35487 -1.05882,-0.12498 -1.99809,0.63184 -2.30708,1.85896 -0.23407,0.92958 0.42966,1.49416 1.31948,1.12237 z m -2.20401,1.27965 c -1.090901,-0.36246 -1.651005,-1.05457 -1.651005,-2.04009 0,-0.73517 0.274049,-1.34167 0.878502,-1.94429 0.866723,-0.86408 1.844753,-1.29275 3.143163,-1.37764 0.82844,-0.0542 1.62083,0.0913 2.1281,0.39056 l 0.26815,0.15822 0.23589,-0.24621 c 0.22676,-0.23669 0.26581,-0.2462 1.01026,-0.2462 0.42591,0 0.79388,0.0195 0.81771,0.0433 0.0238,0.0238 -0.21746,0.88327 -0.53621,1.90987 -0.31877,1.02659 -0.57956,1.94173 -0.57956,2.03365 0,0.31396 0.31268,0.30286 1.10095,-0.0391 0.08,-0.0347 0.27837,0.0696 0.53366,0.2806 l 0.40638,0.33581 -0.36227,0.22869 c -0.67405,0.42551 -1.22555,0.57782 -2.10206,0.58051 -0.88117,0.003 -1.33728,-0.15632 -1.6732,-0.58336 l -0.1652,-0.21002 -0.76231,0.38818 c -0.71807,0.36564 -0.80847,0.38996 -1.5573,0.41907 -0.51423,0.02 -0.91459,-0.009 -1.13365,-0.0816 z m -28.40567,0.0343 c -0.592633,-0.11851 -1.140858,-0.54204 -1.230621,-0.95071 -0.03686,-0.16785 0.06993,-0.65686 0.343297,-1.57198 l 0.396808,-1.32834 -0.19514,-0.15801 c -0.147024,-0.11905 -0.268487,-0.14425 -0.49265,-0.1022 -0.45499,0.0854 -0.684623,0.23371 -1.202935,0.77717 -0.576885,0.60487 -0.762212,0.95246 -1.210226,2.26979 l -0.345533,1.016 -1.131646,0.0237 -1.131646,0.0237 0.05224,-0.19303 c 0.02873,-0.10616 0.295588,-0.9836 0.593022,-1.94986 l 0.540792,-1.75683 h -0.493556 c -0.27145,0 -0.514147,-0.0333 -0.539318,-0.0741 -0.02518,-0.0407 0.02374,-0.27886 0.108712,-0.52916 l 0.154491,-0.4551 0.669459,-0.0662 c 0.368199,-0.0364 0.986782,-0.1412 1.37464,-0.23283 0.627126,-0.14817 1.369144,-0.22129 1.369144,-0.13492 0,0.0174 -0.05715,0.19367 -0.127,0.39164 -0.185665,0.52624 -0.168266,0.5392 0.29558,0.22013 0.642028,-0.44164 1.190608,-0.60028 2.075087,-0.60009 0.859798,0 1.281261,0.15969 1.682682,0.63675 0.308339,0.36644 0.287198,0.66308 -0.150469,2.11056 -0.203615,0.67339 -0.35135,1.27346 -0.328312,1.3335 0.0643,0.16759 0.624018,0.1297 0.941273,-0.0637 l 0.282507,-0.17224 0.352493,0.31846 c 0.19387,0.17515 0.352493,0.35415 0.352493,0.39779 0,0.1526 -1.044728,0.65087 -1.620461,0.77285 -0.620768,0.13152 -0.913884,0.14153 -1.385206,0.0473 z m -10.264648,-0.006 c -0.415637,-0.12515 -0.805899,-0.42055 -0.946192,-0.71619 -0.169181,-0.35652 -0.123833,-0.58779 0.411599,-2.09934 l 0.382397,-1.0795 h -0.548911 c -0.626686,0 -0.644153,-0.029 -0.417805,-0.69328 l 0.131107,-0.38477 0.65206,-0.0587 c 0.358631,-0.0323 1.03306,-0.13251 1.498727,-0.22271 0.816771,-0.15821 1.481666,-0.21217 1.481666,-0.12023 0,0.0244 -0.309422,0.93734 -0.687603,2.02884 -0.378181,1.09151 -0.665124,2.04313 -0.637659,2.11471 0.06911,0.18009 0.357912,0.1627 0.792565,-0.0477 l 0.367428,-0.17786 0.378968,0.31053 c 0.208432,0.1708 0.378968,0.34078 0.378968,0.37774 0,0.10963 -1.001226,0.61014 -1.470524,0.7351 -0.474532,0.12635 -1.399964,0.14384 -1.766791,0.0334 z m -14.223999,0 c -0.419608,-0.12635 -0.806407,-0.42162 -0.950739,-0.72578 -0.179451,-0.37816 -0.167072,-0.43672 0.700947,-3.31742 l 0.669696,-2.2225 h -0.538623 c -0.606756,0 -0.612123,-0.008 -0.405105,-0.6157 0.146854,-0.43101 0.0441,-0.38887 1.305805,-0.53563 0.20955,-0.0244 0.698331,-0.1182 1.086189,-0.20849 0.840994,-0.19579 1.199811,-0.21005 1.199811,-0.0477 0,0.0641 -0.421547,1.51615 -0.93676,3.22679 -0.515222,1.71065 -0.916466,3.16317 -0.891659,3.22782 0.06375,0.16613 0.33379,0.14604 0.814079,-0.0606 l 0.414062,-0.17812 0.385936,0.31624 c 0.446778,0.3661 0.432842,0.40977 -0.239352,0.74985 -0.843941,0.427 -1.947114,0.59207 -2.614287,0.39118 z m -31.948417,-0.0516 c -0.452478,-0.16055 -0.875437,-0.60304 -0.93658,-0.97983 -0.03453,-0.21281 0.05351,-0.63099 0.310452,-1.47448 0.197263,-0.64758 0.376807,-1.22505 0.398986,-1.28326 0.02974,-0.078 -0.106491,-0.10583 -0.519066,-0.10583 -0.307666,0 -0.558831,-0.01 -0.558145,-0.0212 6.78e-4,-0.0116 0.07248,-0.24976 0.159539,-0.52916 l 0.158292,-0.508 0.665961,-0.0583 c 0.366278,-0.032 0.932661,-0.12043 1.258628,-0.19642 0.325966,-0.076 0.815857,-0.15943 1.088644,-0.18542 0.456352,-0.0435 0.492269,-0.0345 0.449542,0.11175 -0.02554,0.0875 -0.277306,0.9236 -0.559479,1.85811 -0.282173,0.93452 -0.513041,1.77462 -0.513041,1.8669 0,0.41627 0.458403,0.48479 1.092758,0.16333 0.80155,-0.40617 1.438685,-1.37131 1.958881,-2.96734 l 0.303552,-0.93133 1.116405,-0.0236 c 0.614022,-0.013 1.116404,0.009 1.116404,0.0482 0,0.0395 -0.263405,0.94551 -0.585345,2.01329 -0.598869,1.98628 -0.618487,2.15309 -0.25322,2.15309 0.08619,0 0.326871,-0.0827 0.534855,-0.18372 l 0.378153,-0.18372 0.386112,0.31639 c 0.212361,0.17401 0.386112,0.34663 0.386112,0.38359 0,0.11715 -0.967825,0.5884 -1.485185,0.72315 -1.212188,0.31574 -2.21589,0.0698 -2.661107,-0.65208 l -0.142712,-0.2314 -0.289665,0.21679 c -0.958415,0.7173 -2.321273,0.9934 -3.259731,0.6604 z m -5.785973,-1.23282 c 0.538527,-0.30267 1.093707,-1.31468 1.093707,-1.99366 0,-0.35972 -0.2311,-0.77006 -0.51692,-0.91787 -0.356697,-0.18445 -1.064851,-0.12048 -1.475466,0.1333 -0.757834,0.46836 -1.281098,1.87039 -0.947355,2.53832 0.260293,0.52093 1.142121,0.63553 1.846034,0.23991 z m -2.081293,1.2756 c -1.075774,-0.24186 -1.788504,-0.71019 -2.123813,-1.39554 -0.196022,-0.40065 -0.221307,-0.53834 -0.184068,-1.00226 0.129848,-1.61762 1.791988,-2.84355 4.047279,-2.98512 1.800375,-0.113 3.185451,0.4375 3.68869,1.46608 0.190891,0.39017 0.21783,0.53252 0.176521,0.93278 -0.140569,1.36198 -1.45406,2.58958 -3.156689,2.95029 -0.641757,0.13596 -1.915281,0.15353 -2.44792,0.0338 z m 71.718784,-1.34914 c 0.51496,-0.24929 1.178594,-0.99429 1.519657,-1.70596 0.16201,-0.33805 0.294555,-0.67804 0.294555,-0.75554 0,-0.22599 -0.570111,-0.45019 -1.143,-0.4495 -0.791735,9.3e-4 -1.407727,0.39437 -1.880412,1.20093 -0.252781,0.43135 -0.355008,1.33142 -0.176022,1.54984 0.301929,0.36847 0.829098,0.42944 1.385222,0.16023 z m -3.092839,3.6319 c -0.610599,-0.10123 -1.309776,-0.42821 -1.483919,-0.69398 -0.374743,-0.57193 0.09856,-1.15696 0.936007,-1.15696 0.378452,0 0.504834,0.0444 0.827583,0.29077 0.575318,0.43914 0.852128,0.5559 1.317997,0.5559 0.90115,0 1.857435,-0.59723 2.214101,-1.38277 0.234036,-0.51546 0.206274,-0.58819 -0.13589,-0.35599 -0.544957,0.36982 -1.108997,0.51129 -2.028494,0.50877 -0.971389,-0.003 -1.392843,-0.14589 -1.973919,-0.67086 -0.465997,-0.421 -0.647869,-0.91578 -0.578967,-1.57504 0.177689,-1.69999 1.882317,-3.0614 3.992219,-3.18843 0.839021,-0.0505 1.626523,0.0986 2.14895,0.40682 l 0.289018,0.17051 0.266709,-0.2585 c 0.258588,-0.25063 0.290753,-0.25851 1.055031,-0.25851 h 0.788314 l -0.05134,0.20458 c -0.209914,0.83635 -1.551169,4.99873 -1.715236,5.32296 -0.426271,0.84239 -1.154075,1.42981 -2.221247,1.79277 -1.054066,0.35851 -2.522118,0.47443 -3.646915,0.28796 z m -24.302947,-0.0152 c -0.922401,-0.1799 -1.446928,-0.51743 -1.569094,-1.00967 -0.04781,-0.19264 -0.007,-0.28291 0.23926,-0.52917 0.272466,-0.27246 0.338099,-0.2969 0.797475,-0.2969 0.461967,0 0.540698,0.0298 1.021029,0.38677 0.422529,0.31397 0.606959,0.39569 0.980076,0.43419 0.651408,0.0672 1.313036,-0.15766 1.829232,-0.62176 0.356472,-0.32049 0.766021,-0.96784 0.766021,-1.21078 0,-0.0452 -0.180975,0.0296 -0.402166,0.16612 -0.911894,0.5628 -2.417487,0.67127 -3.172875,0.22859 -0.78541,-0.46028 -0.832121,-0.81965 -0.321462,-2.47346 0.186927,-0.60537 0.340004,-1.14829 0.340182,-1.2065 0,-0.0729 -0.157548,-0.10584 -0.507678,-0.10584 -0.2794,0 -0.508,-0.0252 -0.508,-0.056 0,-0.0308 0.06248,-0.2543 0.138861,-0.49658 l 0.138862,-0.44052 0.61739,-0.0522 c 0.339564,-0.0287 0.982353,-0.13127 1.428436,-0.22791 0.446075,-0.0966 0.958833,-0.16403 1.139453,-0.14973 l 0.328413,0.026 -0.583379,1.89423 c -0.320852,1.04184 -0.58337,1.94537 -0.58337,2.00787 0,0.14314 0.266929,0.28948 0.523604,0.28704 0.310795,-0.003 0.844813,-0.28584 1.202478,-0.63701 0.612344,-0.60122 0.92843,-1.24946 1.412096,-2.89596 l 0.180315,-0.61383 h 1.087425 c 0.598085,0 1.103113,0.0286 1.122299,0.0635 0.0774,0.14094 -1.562083,5.23755 -1.827843,5.68216 -0.506485,0.84731 -1.318362,1.38607 -2.58219,1.71354 -0.828471,0.21466 -2.471953,0.28268 -3.23485,0.13387 z"
         style="fill:#322f61;fill-opacity:1;stroke-width:0.0846667"
         id="path894"
         inkscape:connector-curvature="0" />
      <path
         id="path892"
         d="m -110.50169,396.60119 v -1.43934 H -6.446365 97.608967 v 1.43934 1.43933 H -6.446365 -110.50169 Z"
         style="fill:#da251d;fill-opacity:1;stroke-width:0.0846667"
         inkscape:connector-curvature="0" />
      <path
         id="path890"
         d="m -110.50169,392.45252 v -1.43933 h 37.580992 37.580994 l 0.109219,0.39009 c 0.235133,0.83981 1.088165,1.70268 2.206109,2.23155 l 0.543012,0.25689 -39.010165,7e-5 -39.010161,6e-5 z"
         style="fill:#322f61;fill-opacity:1;stroke-width:0.0846667"
         inkscape:connector-curvature="0" />
      <path
         id="path888"
         d="m -26.512364,393.65208 c 1.183344,-0.50572 2.131661,-1.28662 2.62586,-2.16231 l 0.268969,-0.47658 h 10.055911 10.055902 l 0.192709,0.52916 c 0.261578,0.7183 1.132315,1.59638 2.021527,2.03858 l 0.625204,0.31092 -13.198203,-0.002 -13.198212,-0.002 0.550333,-0.23519 z"
         style="fill:#322f61;fill-opacity:1;stroke-width:0.0846667"
         inkscape:connector-curvature="0" />
      <path
         id="path886"
         d="m 5.263221,393.68588 c 1.167274,-0.47999 2.20201,-1.30899 2.683747,-2.15017 l 0.296333,-0.51744 44.682836,-0.003 44.68283,-0.003 v 1.43933 1.43933 l -46.4185,-0.002 -46.418499,-0.002 0.491253,-0.202 z"
         style="fill:#322f61;fill-opacity:1;stroke-width:0.0846667"
         inkscape:connector-curvature="0" />
      <path
         d="m 83.250427,384.26101 c 0.0254,-0.0815 0.77374,-3.08186 1.66294,-6.6675 1.75965,-7.09567 1.85837,-7.62408 1.52355,-8.15426 -0.22317,-0.35338 -0.62686,-0.52407 -1.23949,-0.52407 h -0.47896 l 0.0538,-0.269 c 0.0296,-0.14794 0.0669,-0.28205 0.0828,-0.298 0.016,-0.016 1.32048,-0.31392 2.89895,-0.66216 2.68748,-0.59289 3.8436,-0.76048 3.8436,-0.55715 0,0.042 -0.56901,2.20417 -1.26446,4.80484 -0.69545,2.60065 -1.28912,4.84277 -1.31926,4.98247 -0.0301,0.1397 0.1787,-0.2413 0.46408,-0.84667 0.81518,-1.7292 2.13343,-4.32166 2.66925,-5.24933 1.441,-2.49487 2.47236,-3.52234 3.73769,-3.72361 0.73714,-0.11725 1.51047,0.32037 1.82581,1.03322 0.45034,1.01807 0.185,2.92855 -0.56327,4.05551 -0.4398,0.66239 -0.82357,0.92088 -1.3672,0.92088 -0.56483,0 -0.80188,-0.17049 -1.24087,-0.89248 -0.36853,-0.6061 -0.43866,-0.67068 -0.73044,-0.67256 -0.75786,-0.005 -1.88947,1.57929 -3.30089,4.62098 -1.22111,2.63153 -1.69978,4.01373 -2.46756,7.12523 l -0.27682,1.12183 h -2.27973 c -2.13233,0 -2.27675,-0.01 -2.23353,-0.14817 z m -21.25092,-9.94833 c 0.0537,-0.42394 0.47058,-7.71394 0.44271,-7.74181 -0.0105,-0.0105 -1.25576,1.4355 -2.76731,3.21324 -1.51155,1.77775 -3.06524,3.60491 -3.45264,4.06034 l -0.70436,0.82806 h 3.21801 3.21801 z m -17.543927,9.7658 c 0.07669,-0.30214 0.117957,-0.33921 0.477833,-0.42922 0.216637,-0.0542 0.641536,-0.21857 0.944219,-0.36528 1.042416,-0.50529 2.052778,-1.64791 12.013095,-13.58563 l 9.34243,-11.19717 h 0.41357 0.41357 v 0.56516 c 0,0.31083 -0.19328,5.29241 -0.4295,11.07016 -0.23622,5.77776 -0.41447,10.84791 -0.3961,11.26701 0.0612,1.39564 0.53383,2.02645 1.68864,2.25364 0.42164,0.083 0.48915,0.12116 0.45138,0.25545 -0.15521,0.55184 0.46831,0.49658 -5.60251,0.49658 h -5.46203 l 0.058,-0.27517 c 0.0319,-0.15134 0.0846,-0.30387 0.11709,-0.33895 0.0325,-0.0351 0.38091,-0.10251 0.77424,-0.14984 1.06858,-0.12856 1.13607,-0.15085 1.47091,-0.4857 0.49571,-0.49571 0.79338,-1.20331 0.9346,-2.22167 0.10284,-0.74172 0.2993,-3.65223 0.2993,-4.43424 v -0.22243 h -3.88931 -3.88932 l -1.05297,1.29117 c -0.57914,0.71014 -1.38441,1.69121 -1.78948,2.18016 -0.84024,1.01423 -1.26837,1.72411 -1.41009,2.33804 -0.0846,0.36655 -0.0775,0.46984 0.0508,0.7402 0.19423,0.40929 0.72171,0.71601 1.43451,0.83412 l 0.55523,0.092 v 0.32615 0.32615 h -3.801005 -3.800991 z m -132.520608,0.30156 c 0,-0.016 0.707304,-2.88268 1.571786,-6.37037 1.74043,-7.02164 1.814937,-7.34399 1.81475,-7.85119 -2.54e-4,-0.79298 -0.493108,-1.24293 -1.361591,-1.24317 -0.259998,-7e-5 -0.495011,-0.0224 -0.522254,-0.0497 -0.101746,-0.10174 0.123164,-0.52909 0.302046,-0.57391 0.101712,-0.0255 1.398958,-0.31473 2.88277,-0.64278 2.397171,-0.52998 3.694493,-0.72346 3.694493,-0.55098 0,0.025 -0.592446,2.2583 -1.316547,4.9629 -0.724101,2.70458 -1.304339,4.92964 -1.289419,4.94455 0.01492,0.0149 0.41905,-0.80337 0.898066,-1.81842 2.306353,-4.88728 3.792949,-7.14053 5.152624,-7.80989 1.17047,-0.57622 2.243266,-0.25144 2.703235,0.81839 0.194452,0.45227 0.197987,1.83293 0.0066,2.55987 -0.390822,1.48408 -1.276919,2.47913 -2.108371,2.36761 -0.445498,-0.0597 -0.710132,-0.25101 -0.997296,-0.72074 -0.133397,-0.21821 -0.324406,-0.50151 -0.424466,-0.62957 -0.596038,-0.76282 -1.752981,0.39639 -3.118551,3.12468 -1.553647,3.10405 -2.296916,5.13891 -3.110976,8.51699 l -0.239738,0.99483 h -2.268558 c -1.247705,0 -2.268556,-0.0131 -2.268556,-0.0291 z m 162.729325,0.50436 c -0.63485,-0.14077 -0.93527,-0.31519 -1.34536,-0.78108 -0.37726,-0.42858 -0.60292,-1.02735 -0.6005,-1.59334 0.002,-0.56373 0.17253,-1.21328 1.67747,-6.40451 0.79074,-2.72766 1.48674,-5.25121 1.54668,-5.60789 0.097,-0.57704 0.0933,-0.68135 -0.0332,-0.9467 -0.21436,-0.44951 -0.58403,-0.63501 -1.26623,-0.63539 -0.63719,0 -0.66537,-0.0351 -0.44881,-0.55336 0.0675,-0.1615 0.17224,-0.29369 0.23283,-0.29376 0.0606,-8e-5 1.51117,-0.22868 3.22353,-0.508 1.71236,-0.27933 3.32621,-0.50786 3.58634,-0.50786 h 0.47297 l -0.058,0.23284 c -0.0319,0.12805 -0.91624,3.22368 -1.96515,6.87916 -1.0489,3.65549 -1.95787,6.88853 -2.01992,7.18456 -0.12959,0.61819 -0.0637,0.89736 0.24506,1.03803 0.44153,0.20117 1.30962,-0.54353 2.26024,-1.93896 0.24478,-0.35931 0.47446,-0.6867 0.51039,-0.72753 0.0609,-0.0692 0.67041,0.24471 0.67041,0.34523 0,0.0982 -0.63735,1.08697 -1.12477,1.74502 -1.34519,1.81606 -2.78427,2.87677 -4.20923,3.10252 -0.66352,0.10512 -0.75913,0.10307 -1.35467,-0.029 z m -47.858872,-3.62232 c 1.310192,-0.61711 3.574644,-4.46714 4.423529,-7.5209 0.666538,-2.39778 0.516441,-4.63254 -0.35439,-5.27647 -0.282617,-0.20898 -0.86371,-0.21647 -1.251136,-0.0161 -0.708363,0.3663 -1.554945,1.52447 -2.414329,3.30292 -1.687534,3.49226 -2.587718,7.23661 -2.119122,8.81456 0.118051,0.39753 0.439615,0.80113 0.721656,0.90577 0.183896,0.0682 0.581991,-0.0158 0.993792,-0.20976 z m -4.115307,3.6523 c -0.893115,-0.18464 -1.487763,-0.67338 -1.961769,-1.61238 -0.534772,-1.05937 -0.746794,-2.4576 -0.589467,-3.88737 0.377444,-3.43012 2.392799,-7.47739 4.902183,-9.84461 1.740323,-1.64173 3.331252,-2.45144 4.834568,-2.46057 0.873836,-0.005 1.329834,0.17071 1.802943,0.69593 0.357175,0.3965 0.426762,0.54012 0.692302,1.42884 l 0.183862,0.61537 0.278241,-0.99637 c 0.153026,-0.548 0.31015,-1.05667 0.349173,-1.13037 0.05927,-0.11197 0.420015,-0.15228 2.193976,-0.24518 1.167672,-0.0611 2.146317,-0.0879 2.174765,-0.0594 0.02845,0.0284 -0.752416,2.82482 -1.735243,6.21417 -2.412645,8.32017 -2.410791,8.31191 -1.927259,8.57069 0.435026,0.23281 1.296881,-0.43706 2.177499,-1.69246 0.194488,-0.27726 0.395715,-0.50251 0.447176,-0.50056 0.05146,0.002 0.218431,0.0701 0.371051,0.15154 l 0.277479,0.14799 -0.427813,0.70437 c -1.601216,2.6363 -3.420448,3.9182 -5.588152,3.93763 -0.81661,0.007 -1.319081,-0.18135 -1.761651,-0.66148 -0.519159,-0.56322 -0.59546,-1.07652 -0.340986,-2.29393 0.08188,-0.39175 0.6768,-2.53623 0.802259,-2.8919 0.03029,-0.0858 -0.232309,0.28919 -0.583548,0.83344 -0.917778,1.42212 -1.518717,2.19956 -2.428909,3.14232 -1.229055,1.27302 -2.088862,1.77057 -3.222879,1.86501 -0.302471,0.0252 -0.716381,0.0114 -0.919801,-0.0307 z m -31.930483,-3.6208 c 1.471668,-0.6675 4.115664,-5.43198 4.686427,-8.44493 0.397273,-2.09714 0.174642,-3.85752 -0.554829,-4.38704 -0.328278,-0.23829 -0.903097,-0.21135 -1.373615,0.0644 -0.926956,0.54324 -2.031196,2.34198 -3.123607,5.08818 -0.981058,2.4663 -1.35824,4.06846 -1.365352,5.79967 -0.0041,0.99575 0.01787,1.18662 0.170451,1.48166 0.313995,0.60716 0.816779,0.73541 1.560525,0.39807 z m -4.029566,3.621 c -1.11517,-0.22109 -1.766104,-0.86854 -2.261226,-2.24912 -0.809634,-2.25753 -0.333189,-5.17204 1.424262,-8.71261 0.814206,-1.64029 1.535168,-2.69737 2.605498,-3.82019 1.84404,-1.93448 3.669979,-2.98248 5.266699,-3.02284 1.420037,-0.0359 2.224074,0.60854 2.611814,2.09335 0.07043,0.26975 0.144179,0.50656 0.163864,0.52625 0.01969,0.0197 0.161611,-0.41264 0.315391,-0.96072 0.153772,-0.54808 0.31347,-1.03462 0.354889,-1.08119 0.09629,-0.10826 4.385767,-0.36534 4.385733,-0.26285 -1.7e-5,0.0417 -0.79761,2.823 -1.772437,6.18067 -2.385695,8.21725 -2.376559,8.17888 -2.030247,8.52519 0.42777,0.42777 1.267536,-0.21713 2.49958,-1.91957 l 0.178587,-0.24677 0.308246,0.14679 c 0.169537,0.0807 0.308246,0.19869 0.308246,0.26211 0,0.22921 -1.224001,1.96183 -1.853506,2.62371 -1.231527,1.29486 -2.539635,1.92683 -4.03263,1.94825 -0.680483,0.01 -0.817626,-0.0154 -1.257258,-0.23047 -0.366632,-0.17937 -0.555676,-0.33952 -0.735499,-0.62307 -0.461611,-0.72789 -0.417331,-1.37082 0.254863,-3.70053 0.186876,-0.64768 0.328151,-1.18923 0.313936,-1.20345 -0.01422,-0.0142 -0.3545,0.47857 -0.756192,1.09508 -0.942552,1.44661 -1.653354,2.32657 -2.59643,3.21434 -0.868181,0.81727 -1.531451,1.2064 -2.353107,1.3805 -0.63097,0.13371 -0.828446,0.13917 -1.343076,0.0371 z m -21.878433,-0.0302 c -0.256116,-0.0568 -0.581942,-0.16498 -0.724058,-0.24041 -0.424268,-0.22518 -0.933413,-0.84515 -1.095939,-1.33447 -0.24159,-0.72735 -0.138519,-1.36359 0.681874,-4.20908 2.6933,-9.34156 2.620927,-9.05099 2.380133,-9.55594 -0.211365,-0.44324 -0.58367,-0.62863 -1.263176,-0.62901 -0.629138,0 -0.665916,-0.0429 -0.485261,-0.56109 l 0.08624,-0.24739 3.321595,-0.53097 c 3.032034,-0.48469 4.125927,-0.61014 4.125927,-0.47317 0,0.0277 -0.859313,3.04328 -1.909585,6.70128 -2.188198,7.62132 -2.275848,7.9573 -2.157263,8.2692 0.189368,0.49808 0.661301,0.46525 1.274387,-0.0886 0.3025,-0.27328 1.307189,-1.53991 1.693712,-2.13529 l 0.128918,-0.19858 0.315582,0.1862 c 0.17357,0.10241 0.315583,0.20215 0.315583,0.22165 0,0.10648 -0.935208,1.51829 -1.393395,2.10351 -1.238474,1.58185 -2.608555,2.53818 -3.940605,2.7506 -0.663104,0.10575 -0.758706,0.10374 -1.354667,-0.0284 z m -24.524921,-1.08386 c 0.34658,-7.60451 0.255856,-12.12192 -0.26719,-13.30434 -0.321894,-0.72768 -1.044344,-1.1346 -1.846929,-1.04027 l -0.454292,0.0534 3.39e-4,-0.36058 3.39e-4,-0.36057 3.217795,-0.853 3.217796,-0.853 0.256678,0.8013 c 0.549735,1.71615 0.788109,4.03317 0.744192,7.2336 -0.01582,1.15256 -0.02335,2.09553 -0.01675,2.0955 0.0066,-3e-5 1.624888,-2.28607 3.596185,-5.08007 l 3.584175,-5.08 h 0.364638 c 0.215113,0 0.380136,0.0434 0.402428,0.10584 0.02078,0.0582 0.324116,2.86808 0.67407,6.24416 0.349954,3.37609 0.665128,6.28819 0.700387,6.47134 l 0.06411,0.33301 1.126434,-1.22763 c 1.473614,-1.606 2.041763,-2.37049 2.60289,-3.50238 0.695309,-1.40257 0.856275,-2.22945 0.586285,-3.01176 -0.07116,-0.2062 -0.414886,-0.77394 -0.763825,-1.26164 -0.701983,-0.98114 -0.839299,-1.34192 -0.776591,-2.0404 0.0537,-0.59813 0.28519,-1.05198 0.759627,-1.48931 0.442186,-0.40759 0.86584,-0.56913 1.502846,-0.57305 1.211108,-0.007 2.103352,0.88002 2.377896,2.36516 0.33117,1.79147 -1.279059,5.52076 -3.564186,8.25466 -1.39688,1.67121 -3.924589,4.18408 -6.478352,6.44033 -0.875007,0.77307 -0.979913,0.84101 -1.298682,0.84101 -0.291407,0 -0.353128,-0.0304 -0.386521,-0.1905 -0.02186,-0.10478 -0.271584,-2.5527 -0.554953,-5.43984 -0.283367,-2.88713 -0.542435,-5.37093 -0.575708,-5.51954 -0.05792,-0.25872 -0.230152,-0.0281 -4.047222,5.41866 l -3.986729,5.68888 -0.408177,0.0264 -0.408177,0.0264 0.05522,-1.21168 z m -11.423975,1.11782 c -1.453023,-0.30392 -2.211981,-1.42043 -1.98303,-2.91726 0.05027,-0.32868 0.74152,-2.84549 1.536106,-5.59292 1.915291,-6.62248 1.905893,-6.57438 1.393544,-7.13345 -0.281531,-0.3072 -0.306634,-0.31609 -0.978378,-0.3466 l -0.689433,-0.0313 0.05706,-0.26599 c 0.113706,-0.53003 -0.01677,-0.49011 3.437593,-1.05186 1.785172,-0.29031 3.450555,-0.52752 3.70085,-0.52714 0.45132,8.4e-4 0.454694,0.003 0.407942,0.23352 -0.02593,0.12805 -0.923144,3.28661 -1.993815,7.01901 -1.070671,3.73241 -1.972873,6.9609 -2.004893,7.17442 -0.07727,0.51528 -0.0046,0.76379 0.258365,0.88361 0.328053,0.14947 0.675548,-0.0378 1.289699,-0.69501 0.446539,-0.47785 1.219229,-1.48861 1.454414,-1.90252 0.05395,-0.095 0.11009,-0.0914 0.326641,0.0206 0.380679,0.19685 0.394647,0.26821 0.139077,0.71046 -0.8057,1.39422 -2.182782,2.96143 -3.191256,3.63187 -0.980438,0.65179 -2.27541,0.97573 -3.160488,0.79061 z m -39.65843,0.0147 c 0,-0.0378 0.4953,-2.19034 1.10066,-4.78331 0.60537,-2.59297 1.10067,-4.73371 1.10067,-4.75719 0,-0.0235 0.16752,-0.0427 0.37226,-0.0427 h 0.37225 l 0.0984,0.74083 c 0.2263,1.70367 0.77944,3.43685 1.45743,4.56667 0.39387,0.65635 1.31439,1.56242 1.9944,1.96308 1.73943,1.02489 3.92865,1.09681 5.363284,0.17621 0.502152,-0.32223 1.277054,-1.13241 1.498036,-1.56624 0.446581,-0.87671 0.571805,-2.12557 0.314076,-3.13227 -0.365579,-1.42797 -1.151266,-2.52175 -3.758906,-5.23291 -2.29428,-2.38537 -3.20206,-3.65121 -3.7472,-5.22525 -0.26722,-0.77159 -0.27682,-0.8458 -0.27875,-2.15379 -0.002,-1.26974 0.0129,-1.39714 0.23558,-2.032 0.33381,-0.95168 0.82333,-1.73649 1.57276,-2.52147 0.74418,-0.77948 1.35619,-1.21899 2.33839,-1.67926 1.162375,-0.54471 1.964995,-0.70024 3.640317,-0.70546 1.604027,-0.005 1.816234,0.0265 4.309893,0.63955 2.493453,0.613 3.031667,0.5702 3.913062,-0.31119 0.34094,-0.34094 0.412739,-0.37517 0.787001,-0.37517 h 0.411833 l -0.236662,0.9525 c -0.130164,0.52387 -0.60655,2.46697 -1.058633,4.318 l -0.821971,3.3655 h -0.313849 -0.313849 l -0.09937,-0.74631 c -0.366801,-2.75499 -1.594248,-4.74483 -3.505558,-5.68296 -2.075338,-1.01865 -4.232741,-0.35609 -5.23693,1.6083 -0.242147,0.47368 -0.283696,0.64982 -0.316349,1.34108 -0.04734,1.00217 0.0672,1.53886 0.53486,2.50622 0.502377,1.03918 1.196232,1.87326 3.415935,4.10634 2.100358,2.113 2.805606,2.97592 3.356023,4.10633 0.522684,1.07345 0.643317,1.58822 0.694438,2.96333 0.03741,1.00636 0.01782,1.29523 -0.12974,1.9132 -0.33402,1.39882 -0.960683,2.47024 -2.033756,3.47715 -0.816793,0.76643 -1.696714,1.27586 -2.928627,1.69555 -1.365319,0.46512 -2.396557,0.60176 -4.153088,0.55027 -1.41403,-0.0414 -1.64443,-0.0723 -4.86833,-0.65277 -2.09931,-0.37795 -2.73538,-0.32198 -3.82653,0.33673 -0.41473,0.25037 -0.659,0.34221 -0.91017,0.34221 -0.18882,0 -0.3433,-0.031 -0.3433,-0.0688 z m 111.321393,7.63973 c -0.543264,-0.16718 -1.260975,-0.83584 -1.513146,-1.40972 -0.406552,-0.92522 -0.206875,-2.05525 0.485512,-2.74764 0.496232,-0.49623 0.896417,-0.66214 1.593232,-0.66052 0.792963,0.002 1.303037,0.28146 2.061811,1.13023 0.694301,0.77667 0.945194,0.90052 1.491243,0.73618 0.436194,-0.13128 1.131832,-0.63384 1.639121,-1.18418 l 0.332799,-0.36104 0.06244,-2.03929 c 0.03435,-1.12162 0.03767,-2.52769 0.0074,-3.12462 -0.03028,-0.59693 -0.14898,-3.19194 -0.263762,-5.7667 -0.137584,-3.08624 -0.253187,-4.90375 -0.339268,-5.334 -0.169647,-0.84795 -0.581262,-1.67359 -0.999067,-2.00402 -0.293522,-0.23214 -0.394826,-0.26018 -1.037166,-0.28712 l -0.711869,-0.0299 v -0.3582 -0.3582 l 2.880495,-0.84834 2.880487,-0.84833 0.257531,0.34739 c 0.653313,0.88127 1.078441,2.16608 1.305594,3.94572 0.198797,1.55747 0.465768,5.59088 0.618659,9.34686 l 0.05823,1.43053 0.690058,-0.96486 c 1.652558,-2.31067 3.900991,-5.94174 4.293599,-6.93386 0.197062,-0.49799 0.252832,-0.7751 0.258479,-1.28433 0.0087,-0.78785 -0.0386,-0.86392 -1.101141,-1.76981 -0.944533,-0.80528 -1.065606,-1.00483 -1.065606,-1.75634 0,-0.72209 0.219634,-1.22512 0.747234,-1.71144 0.504063,-0.46464 0.887324,-0.61738 1.559552,-0.62152 0.952838,-0.006 1.804907,0.54744 2.291655,1.48812 0.138523,0.26772 0.196935,0.55352 0.221412,1.08332 0.08364,1.81043 -0.953905,4.03748 -4.268698,9.16257 -3.8121,5.89396 -7.812439,10.75331 -10.315211,12.53025 -1.613569,1.14561 -2.996209,1.54909 -4.121598,1.20277 z m -31.8194,0.0753 c -0.857088,-0.14347 -1.560773,-0.57415 -1.909024,-1.1684 -0.196836,-0.33588 -0.222462,-0.45885 -0.192777,-0.92504 0.05835,-0.91635 0.706436,-1.6344 1.652423,-1.83078 0.858763,-0.17828 1.532091,0.0565 1.957742,0.68273 0.160379,0.23594 0.192671,0.37367 0.162809,0.6944 -0.03365,0.36139 -0.148011,0.58941 -0.612407,1.22102 -0.131246,0.1785 0.06295,0.40709 0.371857,0.43772 0.363712,0.0361 0.959441,-0.26393 1.230919,-0.61986 0.517268,-0.67818 0.697232,-1.29015 3.424154,-11.64397 2.394077,-9.09006 2.503559,-9.54073 2.389234,-9.835 -0.190289,-0.48978 -0.821792,-0.83033 -1.539757,-0.83033 h -0.405562 l 0.123665,-0.36294 0.123664,-0.36294 3.279029,-0.52968 c 3.240939,-0.52353 4.083364,-0.61212 4.083364,-0.42944 0,0.2108 -4.190729,15.62134 -4.545017,16.71334 -0.746133,2.29981 -1.6457,4.3413 -2.446917,5.55306 -0.454508,0.68741 -1.514958,1.71315 -2.203607,2.13148 -1.231784,0.74827 -2.700774,1.16946 -4.012459,1.15048 -0.395817,-0.006 -0.814916,-0.0264 -0.931333,-0.0459 z"
         style="fill:#322f61;fill-opacity:1;stroke-width:0.0846667"
         id="path856"
         inkscape:connector-curvature="0" />
      <path
         d="m -6.094279,274.11931 c 1.191811,-0.9953 3.080157,-2.46439 5.098559,-3.96656 l 1.682979,-1.25253 -0.497646,-0.2865 c -0.273702,-0.15757 -1.202495,-0.64552 -2.063978,-1.08432 -0.861484,-0.43879 -1.885849,-0.98577 -2.276374,-1.2155 l -0.710031,-0.41769 -0.767766,0.34966 c -1.359001,0.61892 -8.2254,4.03172 -8.24826,4.09962 -0.03663,0.1088 6.612585,4.47563 6.851184,4.49947 0.03067,0.003 0.449766,-0.32348 0.931333,-0.72565 z m 29.501786,12.32916 c 4.173795,-0.32897 6.656764,-1.16409 7.318679,-2.46157 0.36256,-0.71067 0.265921,-1.51925 -0.278316,-2.32873 -1.246793,-1.85446 -4.294039,-1.14783 -9.16399,2.12503 -1.411935,0.94889 -3.600246,2.57433 -3.600246,2.6742 0,0.1055 4.358318,0.0987 5.723873,-0.009 z m -55.469346,1.049 c 0.937936,-0.12864 2.366439,-0.42593 2.569749,-0.53479 0.07363,-0.0394 -0.185159,-0.29083 -0.774115,-0.75202 -2.339838,-1.83224 -4.547584,-3.02498 -6.391824,-3.45321 -0.692686,-0.16084 -1.912294,-0.16294 -2.373375,-0.004 -1.56135,0.53793 -1.770216,2.06164 -0.456449,3.32987 1.399722,1.35121 4.115185,1.86835 7.426014,1.41423 z m 27.550141,0.74423 c 1.266173,-1.21378 5.13417,-4.85047 6.093223,-5.72883 0.155753,-0.14265 -0.889381,-0.80924 -4.97989,-3.17618 -0.90805,-0.52544 -1.729368,-1.00638 -1.825151,-1.06877 -0.159876,-0.10415 -0.25698,-0.047 -1.185333,0.69752 -1.505949,1.20775 -4.961001,3.70882 -6.713965,4.86015 -0.190542,0.12514 -0.161341,0.15458 1.653743,1.66705 1.016237,0.84681 2.590656,2.16922 3.498706,2.93868 0.90805,0.76946 1.683402,1.40042 1.723001,1.40212 0.03961,0.002 0.820657,-0.71459 1.735666,-1.59174 z m 11.387421,3.55025 c 2.684686,-2.48686 4.881244,-4.54655 4.881244,-4.57709 0,-0.0305 -0.581025,-0.27822 -1.291166,-0.55041 -1.70627,-0.65397 -3.618797,-1.4679 -4.735102,-2.01513 l -0.903926,-0.44313 -1.426185,1.35467 c -0.784403,0.74507 -2.53028,2.37881 -3.879731,3.63054 -1.34946,1.25172 -2.600351,2.41825 -2.779768,2.59228 l -0.326203,0.31642 0.834203,0.67505 c 2.142372,1.73363 4.556701,3.585 4.64627,3.56287 0.05452,-0.0135 2.295677,-2.0592 4.980364,-4.54607 z m -21.099466,4.76207 c 2.647416,-2.00977 6.380378,-5.12884 6.380378,-5.33112 0,-0.082 -7.028027,-6.12771 -7.123345,-6.12771 -0.02236,0 -0.619506,0.34527 -1.326989,0.76726 -2.226962,1.32831 -5.10043,2.70779 -6.853165,3.29004 -0.314325,0.10441 -0.5715,0.22093 -0.5715,0.25894 0,0.0658 4.798517,4.77357 5.418666,5.31615 0.162984,0.1426 0.829734,0.83283 1.481667,1.53386 0.651933,0.70103 1.209759,1.27576 1.239621,1.27718 0.02985,0.001 0.639454,-0.44166 1.354667,-0.9846 z m 10.656045,4.79427 c 1.792816,-1.59851 3.453747,-3.08653 3.69095,-3.3067 l 0.431283,-0.40032 -1.168374,-0.85705 c -0.642612,-0.47137 -1.83819,-1.38993 -2.65684,-2.04123 l -1.488457,-1.18419 -2.565942,2.18169 c -1.411275,1.19994 -3.216563,2.69605 -4.011769,3.3247 -0.795198,0.62865 -1.447131,1.16205 -1.44874,1.18534 -0.0016,0.0233 0.551942,0.48048 1.230114,1.016 0.678163,0.53551 1.905118,1.53267 2.726571,2.21591 l 1.493537,1.24225 0.254,-0.23501 c 0.1397,-0.12926 1.72085,-1.54288 3.513667,-3.14139 z m 26.176417,4.83137 c 0.547091,-0.16898 0.93908,-0.48002 1.176824,-0.9338 0.176412,-0.33672 0.133045,-1.24975 -0.08253,-1.73781 -0.406374,-0.91997 -1.085164,-1.31152 -2.385314,-1.37593 -1.375528,-0.0681 -2.890638,0.32407 -4.692395,1.21467 -1.039732,0.51393 -2.413,1.39678 -2.413,1.55128 0,0.1428 3.203972,1.00731 4.728828,1.27596 1.274927,0.22461 2.950286,0.22718 3.66759,0.006 z m -53.068766,0.9316 c 0.800085,-0.20463 1.8317,-0.6809 2.747963,-1.26865 0.380446,-0.24405 0.69172,-0.45996 0.69172,-0.47981 0,-0.0735 -1.501055,-1.00122 -2.324242,-1.43646 -0.467917,-0.2474 -1.269858,-0.59236 -1.782091,-0.76659 -0.835082,-0.28403 -1.02321,-0.31729 -1.820333,-0.32183 -0.84351,-0.005 -0.912829,0.008 -1.354667,0.2587 -0.368844,0.20891 -0.515772,0.35855 -0.706646,0.71966 -0.205357,0.38852 -0.234917,0.52553 -0.199967,0.92688 0.09355,1.07434 0.947285,2.04087 2.13428,2.41627 0.534526,0.16904 1.860188,0.14462 2.613983,-0.0482 z m 18.93038,1.69917 3.047543,-2.53143 -2.628705,-2.2734 c -1.445785,-1.25038 -2.775289,-2.39957 -2.95446,-2.55376 l -0.325747,-0.28035 -1.044168,0.73527 c -1.240325,0.87342 -3.206479,2.17128 -4.874557,3.21771 -0.663151,0.41601 -1.196551,0.77873 -1.185333,0.80603 0.01122,0.0273 0.858596,0.68132 1.883063,1.45338 1.024467,0.77205 2.567517,1.97794 3.429,2.67975 0.861483,0.70181 1.575215,1.27652 1.586077,1.27712 0.01085,6e-4 1.391133,-1.13803 3.067287,-2.53032 z m 16.217408,-1.0997 c 0.791879,-0.68046 2.193028,-1.84265 3.113668,-2.58265 0.920648,-0.73999 1.663395,-1.35551 1.650559,-1.36782 -0.01284,-0.0123 -0.719023,-0.48414 -1.569313,-1.0485 -0.850282,-0.56435 -2.1045,-1.44586 -2.78715,-1.9589 -0.682642,-0.51304 -1.288128,-0.91478 -1.345523,-0.89275 -0.0574,0.022 -1.877111,1.74218 -4.043815,3.82256 l -3.939456,3.78252 1.200625,1.03268 c 0.660349,0.56798 1.729866,1.4755 2.376711,2.01672 l 1.17608,0.98403 1.36392,-1.27535 c 0.750155,-0.70144 2.011816,-1.83208 2.803694,-2.51254 z m -10.118106,11.19258 c 0.48895,-0.65516 1.390294,-1.87203 2.002993,-2.70416 0.612699,-0.83213 1.431849,-1.88965 1.820333,-2.35005 0.388485,-0.4604 0.755329,-0.90313 0.815205,-0.98384 0.09723,-0.13108 -0.0429,-0.26477 -1.312333,-1.25208 -0.78166,-0.60793 -1.954598,-1.54484 -2.606531,-2.08203 -0.651934,-0.5372 -1.204384,-0.97795 -1.227667,-0.97945 -0.02328,-0.002 -0.975783,0.85946 -2.116667,1.91324 -1.71847,1.58729 -2.497319,2.2836 -3.928109,3.51188 -0.04167,0.0358 0.534424,0.70533 1.28021,1.48788 1.437632,1.50849 2.946138,3.16764 3.736179,4.10927 0.262933,0.31338 0.516154,0.5587 0.56272,0.54516 0.04657,-0.0135 0.484717,-0.56066 0.973667,-1.21582 z m -1.588973,40.94313 c -2.693704,-0.44868 -5.363218,-3.25762 -6.700384,-7.05034 -0.357455,-1.01388 -0.730183,-2.51653 -0.933814,-3.76472 -1.241959,-7.61261 1.071236,-16.5893 6.825284,-26.48652 l 0.205808,-0.354 -0.692226,-0.789 c -0.604021,-0.68846 -1.731171,-1.89738 -4.778028,-5.12465 l -0.762,-0.80712 -1.792258,1.34372 c -4.141707,3.10519 -6.856331,4.36038 -9.418954,4.35514 -1.596202,-0.003 -2.701559,-0.4452 -3.853763,-1.54081 -0.375663,-0.35721 -0.663974,-0.669 -0.640691,-0.69286 0.02328,-0.0239 0.213783,-0.0103 0.423333,0.0302 0.522003,0.10088 2.046269,0.098 2.681209,-0.005 1.962453,-0.31851 4.050214,-1.34342 6.453156,-3.16795 1.022816,-0.77661 3.429609,-2.75499 3.46555,-2.84868 0.04609,-0.12014 -2.81934,-2.7231 -4.436008,-4.02966 -1.0869,-0.87841 -2.493128,-1.89809 -2.563825,-1.85907 -0.02993,0.0165 -0.381965,0.22558 -0.782294,0.46458 -2.118547,1.26474 -3.986087,1.82887 -6.045454,1.82617 -1.4061,-0.002 -2.208639,-0.17845 -3.344333,-0.73594 -0.956313,-0.46943 -1.987577,-1.46054 -2.369974,-2.27771 -0.802376,-1.71464 -0.269048,-3.27233 1.410709,-4.12027 1.805206,-0.91127 5.088576,-0.41933 8.745651,1.31033 l 0.97072,0.45912 2.33128,-1.56026 c 1.2822,-0.85814 3.05518,-2.0576 3.939946,-2.66547 l 1.608667,-1.10521 -3.471333,-3.49821 c -1.909234,-1.92401 -3.880951,-3.89404 -4.381593,-4.37784 l -0.910268,-0.87963 -1.164069,0.26296 c -2.092621,0.47273 -3.432091,0.63328 -5.312736,0.63681 -1.198294,0.002 -1.928772,-0.0374 -2.498674,-0.13567 -2.325448,-0.4009 -4.255546,-1.32702 -5.331094,-2.55803 -2.675071,-3.06174 -2.275185,-5.68995 1.001053,-6.57934 0.874842,-0.23749 2.841461,-0.25544 3.946976,-0.036 2.700967,0.53604 5.348176,1.93867 7.43078,3.93719 0.518097,0.49718 0.783873,0.6961 0.889,0.66536 0.355631,-0.10399 5.137189,-1.96217 6.069301,-2.35862 1.236819,-0.52605 2.843657,-1.33208 2.843657,-1.42646 0,-0.0727 -3.98007,-3.81824 -5.757333,-5.41812 -7.895482,-7.10745 -14.004134,-10.59668 -20.108332,-11.4858 -1.805047,-0.26292 -5.40841,-0.173 -7.345266,0.1833 -4.777756,0.8789 -8.570265,3.56515 -10.515011,7.44783 -0.929322,1.85539 -1.307086,3.37862 -1.375342,5.54567 -0.0817,2.59374 0.349928,4.60812 1.496689,6.985 1.081267,2.24113 3.019409,4.65514 5.022971,6.25624 0.990558,0.79159 3.41129,1.80893 5.680282,2.38722 3.686857,0.93965 8.433542,1.04496 13.062781,0.28982 0.546817,-0.0892 1.00596,-0.15044 1.020317,-0.13608 0.05671,0.0567 -2.899212,0.99373 -4.151665,1.31607 -2.94745,0.75857 -5.088923,1.04542 -7.806423,1.04569 -2.1786,2.6e-4 -3.555647,-0.15943 -5.337191,-0.61878 -8.248507,-2.12679 -13.906378,-10.04595 -13.074052,-18.29938 0.594335,-5.89348 3.974473,-10.87751 9.013244,-13.29005 2.492569,-1.19343 5.031169,-1.63793 8.23885,-1.4426 5.05127,0.30761 9.234089,1.46536 14.155482,3.91808 5.435225,2.7088 11.178031,6.9176 18.435023,13.5107 0.476681,0.43307 0.91727,0.7874 0.979085,0.7874 0.234213,0 3.753112,-2.39453 6.607386,-4.49618 l 1.002487,-0.73815 -0.494487,-0.31683 c -3.683304,-2.35996 -7.874626,-4.62972 -12.263162,-6.64096 l -0.592666,-0.27161 1.571574,-0.40754 c 4.226975,-1.09615 8.180611,-2.74437 12.165651,-5.07173 0.8033,-0.46915 1.500717,-0.853 1.549806,-0.853 0.0491,0 0.30624,0.14629 0.57145,0.32508 2.617664,1.76476 5.472251,2.98832 12.102684,5.1876 1.455208,0.48269 2.645689,0.89712 2.645503,0.92097 0,0.0238 -0.581203,0.33623 -1.291167,0.69419 -1.557392,0.78524 -3.259666,1.79253 -4.989668,2.95256 -2.042118,1.36933 -5.741738,4.08201 -5.741289,4.20971 0,0.0335 0.866893,0.575 1.926166,1.20335 1.059274,0.62835 2.55215,1.53405 3.317494,2.01266 0.765345,0.4786 1.420317,0.85985 1.455488,0.84721 0.03518,-0.0127 0.871127,-0.72784 1.857654,-1.58933 4.857123,-4.24147 8.22938,-6.86826 12.228652,-9.52539 5.568992,-3.70006 10.151067,-5.94974 14.037639,-6.8921 2.020858,-0.48999 2.59152,-0.54883 5.181693,-0.5343 3.619839,0.0203 5.306263,0.24278 7.577667,0.9996 2.646646,0.88185 4.688577,2.15067 6.461054,4.0148 1.88472,1.98216 3.01265,4.28419 3.5881,7.32306 0.20665,1.09123 0.24513,3.92777 0.0719,5.29668 -0.54325,4.29204 -2.57336,8.61347 -5.458574,11.61944 -0.973209,1.01395 -1.758281,1.65654 -3.096107,2.5342 -2.45651,1.61156 -4.910032,2.57031 -7.662333,2.99419 -1.191048,0.18342 -3.973821,0.20765 -5.164667,0.045 -3.939192,-0.53818 -7.539016,-1.91848 -11.456093,-4.39267 -0.549868,-0.34732 -0.983996,-0.64726 -0.964718,-0.66653 0.01927,-0.0193 0.379561,0.0964 0.800651,0.25712 2.907427,1.10952 6.276085,1.94823 9.249494,2.3029 1.472252,0.17561 4.387232,0.19817 5.630333,0.0436 1.354379,-0.16844 2.85623,-0.49573 3.965566,-0.86421 2.105745,-0.69944 4.538514,-2.08975 5.5515,-3.17264 2.488955,-2.66069 4.264708,-5.90722 4.929328,-9.012 0.15781,-0.73721 0.19118,-1.16366 0.19544,-2.49767 0.004,-1.38821 -0.022,-1.73049 -0.19272,-2.49766 -0.54308,-2.44019 -1.566599,-4.28049 -3.392622,-6.09999 -1.928139,-1.92124 -4.392032,-3.25607 -7.427696,-4.024 -2.536579,-0.64168 -4.16946,-0.73011 -6.253463,-0.33866 -6.760184,1.2698 -13.291844,4.86573 -21.759332,11.97937 -1.870727,1.57162 -5.362905,4.70788 -5.306644,4.7658 0.09372,0.0965 2.924107,1.28059 4.163644,1.7419 0.62865,0.23396 1.550264,0.54392 2.048036,0.6888 l 0.905044,0.26343 1.211623,-0.86394 c 5.604128,-3.99597 9.62251,-5.91391 12.683963,-6.05396 1.66171,-0.076 2.664257,0.25683 3.609399,1.19831 1.056962,1.05287 1.603223,2.74621 1.384165,4.29076 -0.322462,2.27366 -2.379481,3.75288 -6.097092,4.38447 -2.573968,0.43729 -6.093189,0.41903 -9.548021,-0.0496 l -1.041882,-0.14131 -0.439784,0.42375 c -0.241884,0.23307 -2.554334,2.43517 -5.138784,4.89355 -2.58445,2.45838 -4.805663,4.57197 -4.936041,4.69686 l -0.237033,0.22707 2.269033,1.44446 c 1.247978,0.79446 2.740837,1.71474 3.317468,2.04508 l 1.048436,0.60062 0.239446,-0.17051 c 0.440317,-0.31353 2.140779,-1.07971 3.082357,-1.38882 1.694959,-0.55644 2.850439,-0.7511 4.487333,-0.75595 1.106433,-0.003 1.576409,0.0303 2.032,0.14519 1.436565,0.36227 2.50146,1.17393 3.075254,2.34393 0.302159,0.61613 0.311345,0.66268 0.309,1.56634 -0.003,1.15089 -0.190221,1.70086 -0.787205,2.31215 -0.661205,0.67705 -1.514636,0.9978 -2.893382,1.08745 -1.831899,0.1191 -4.769349,-0.49336 -7.360293,-1.53464 l -0.951255,-0.38231 -0.606722,0.39068 c -0.946167,0.60925 -3.036087,2.20775 -4.247396,3.24868 -1.019133,0.87578 -4.193548,3.81415 -4.565176,4.22571 -0.197417,0.21863 -0.334856,0.0961 1.517176,1.35235 3.791627,2.57184 6.599411,3.67534 9.652,3.79337 1.341941,0.0519 2.291325,-0.0332 3.338779,-0.29919 0.329023,-0.0836 0.59822,-0.1282 0.59822,-0.0992 0,0.029 -0.165218,0.27943 -0.367157,0.5565 -2.801696,3.8442 -7.759149,2.89528 -14.991248,-2.86953 l -1.176748,-0.93799 -0.294632,0.33531 c -0.981176,1.11666 -1.8616,2.15897 -2.607521,3.08699 -1.315746,1.63693 -3.676692,4.81802 -3.676692,4.95387 0,0.0325 0.358097,0.76957 0.795765,1.63782 2.642209,5.24159 3.863822,9.73378 3.85925,14.19145 -0.0036,3.51412 -0.704816,6.19569 -2.236766,8.55386 -1.745022,2.68616 -4.435213,3.90936 -5.99186,2.72443 -0.473117,-0.36013 -0.902614,-1.18566 -0.973311,-1.87076 -0.04847,-0.46979 -0.04163,-0.49673 0.109779,-0.43239 3.109679,1.32136 5.02666,0.80687 6.163767,-1.65424 1.483698,-3.21126 1.108193,-10.25594 -0.894546,-16.78229 -0.533806,-1.73951 -1.392597,-3.66173 -1.916159,-4.28887 l -0.24113,-0.28883 -0.388011,0.54381 c -2.918477,4.09036 -5.20247,10.08201 -5.952176,15.61447 -0.186783,1.37833 -0.255592,4.37391 -0.133257,5.80053 0.428828,5.00047 1.85403,8.38464 3.963068,9.41037 0.52816,0.25686 0.643145,0.28022 1.386637,0.28159 0.786181,10e-4 0.832942,-0.01 1.545065,-0.36237 1.246243,-0.61754 2.665383,-2.12303 3.866981,-4.10229 0.247362,-0.40746 0.468638,-0.74083 0.491727,-0.74083 0.07577,0 -0.06772,1.88758 -0.20596,2.70933 -0.171476,1.01934 -0.54754,2.17498 -0.930766,2.86026 -1.002648,1.7929 -2.818664,2.70198 -4.753737,2.37966 z"
         style="fill:#cda968;fill-opacity:1;stroke-width:0.0846667"
         id="path828"
         inkscape:connector-curvature="0" />
    </g>
  </g>
</svg>
